<svg xmlns="http://www.w3.org/2000/svg" xmlns:xlink="http://www.w3.org/1999/xlink" width="40" height="40" viewBox="0 0 40 40"><defs><clipPath id="b"><rect width="40" height="40"/></clipPath></defs><g id="a" clip-path="url(#b)"><g transform="translate(-15.772 -14.33)"><path d="M42,34.215a9.943,9.943,0,1,0-7.034-2.909A9.915,9.915,0,0,0,42,34.215Zm-5.859-15.8a8.285,8.285,0,1,1,0,11.717,8.26,8.26,0,0,1,0-11.717Z" transform="translate(-6.369 0)" fill="#294a92" stroke="#294a92" stroke-width="0.2"/><path d="M53.487,69.795h0a17.931,17.931,0,0,0-1.907-8.036.831.831,0,1,0-1.484.749,16.265,16.265,0,0,1,1.7,6.457H19.455a16.193,16.193,0,0,1,27.624-10.62.831.831,0,1,0,1.176-1.175A17.858,17.858,0,0,0,17.772,69.8a.831.831,0,0,0,.831.831l.061,0H52.634l.021,0a.831.831,0,0,0,.831-.831v0h0Z" transform="translate(0 -16.769)" fill="#294a92" stroke="#294a92" stroke-width="0.2"/><path d="M41.184,57.469a.838.838,0,0,0,.253,1.635.817.817,0,0,0,.253-.04,13.442,13.442,0,0,1,4.121-.643.837.837,0,0,0,0-1.674,15.081,15.081,0,0,0-4.626.723Z" transform="translate(-7.837 -16.569)" fill="#294a92" stroke="#294a92" stroke-width="0.2"/><path d="M4.951.1A14.539,14.539,0,0,0,.141,3.865a.615.615,0,0,0,.226.951.957.957,0,0,0,.463.116.892.892,0,0,0,.69-.3A12.95,12.95,0,0,1,5.807,1.272a.622.622,0,0,0,.285-.94A.938.938,0,0,0,4.951.1Z" transform="matrix(0.995, -0.105, 0.105, 0.995, 24.97, 42.556)" fill="#294a92" stroke="#294a92" stroke-width="0.2"/></g></g></svg>