<svg xmlns="http://www.w3.org/2000/svg" width="36.59" height="32.577" viewBox="0 0 36.59 32.577"><g transform="translate(-4 -4)"><g transform="translate(4 4)"><path d="M24.6,28.2a1.528,1.528,0,0,0-1.675,1.378c-.164,1.681-1.515,3.252-2.5,3.43a27.4,27.4,0,0,1-10.422,0c-1.008-.18-2.358-1.751-2.52-3.42A104.351,104.351,0,0,1,7.481,11c.164-1.679,1.513-3.25,2.5-3.428a27.392,27.392,0,0,1,10.42,0c1.008.182,2.36,1.753,2.524,3.432a1.533,1.533,0,1,0,3.051-.3c-.288-2.949-2.546-5.71-5.056-6.158a30.332,30.332,0,0,0-11.459,0c-2.489.444-4.749,3.2-5.037,6.166a107.263,107.263,0,0,0,0,19.161c.286,2.949,2.546,5.71,5.054,6.158a34.3,34.3,0,0,0,5.716.544,34.474,34.474,0,0,0,5.745-.546c2.489-.446,4.747-3.207,5.035-6.156A1.533,1.533,0,0,0,24.6,28.2" transform="translate(-4 -4)" fill="#f29200" fill-rule="evenodd"/><path d="M34.654,15.919a1.36,1.36,0,0,0,.039-.2s0,0,0-.008a1.542,1.542,0,0,0-.129-.6,15.4,15.4,0,0,0-5.011-6.279,1.535,1.535,0,1,0-1.914,2.4,14.465,14.465,0,0,1,2.914,2.98l-19.394.157a1.534,1.534,0,0,0,.012,3.068h.01l18.989-.155a14.118,14.118,0,0,1-2.7,2.192A1.534,1.534,0,0,0,29.059,22.1a14.492,14.492,0,0,0,5.506-5.759c0-.006,0-.01,0-.016a1.549,1.549,0,0,0,.086-.407" transform="translate(1.895 0.704)" fill="#f29200" fill-rule="evenodd"/></g></g></svg>