<svg xmlns="http://www.w3.org/2000/svg" xmlns:xlink="http://www.w3.org/1999/xlink" width="40" height="40" viewBox="0 0 40 40"><defs><clipPath id="b"><rect width="40" height="40"/></clipPath></defs><g id="a" clip-path="url(#b)"><g transform="translate(-45.255 -51.276)"><g transform="translate(45.256 53.574)"><g transform="translate(0 0)"><path d="M51.175,104.9h-1.23a5.633,5.633,0,0,0-1.77.183,4.247,4.247,0,0,0-2.918,4.02c0,.854,0,1.712,0,2.565v21.275a4.306,4.306,0,0,0,1.83,3.554,4.374,4.374,0,0,0,2.6.71H65.261a1.307,1.307,0,0,0,0-2.613H51.21c-.6,0-1.213,0-1.817,0a3.341,3.341,0,0,1-.364-.022c.116.017.227.03.343.048a3.236,3.236,0,0,1-.724-.192l.309.131a2.9,2.9,0,0,1-.471-.253.907.907,0,0,1-.116-.083s.261.218.129.1c-.069-.061-.141-.122-.206-.192s-.116-.126-.171-.187c-.073-.083-.1-.2.081.109-.017-.03-.043-.061-.064-.091a3.142,3.142,0,0,1-.266-.505l.129.314a3.093,3.093,0,0,1-.189-.736c.017.118.03.231.047.348a8.517,8.517,0,0,1-.021-.936V111.933c0-.941,0-1.877,0-2.818a3.833,3.833,0,0,1,.021-.383c-.017.118-.03.231-.047.348a3.373,3.373,0,0,1,.189-.736l-.129.314a2.98,2.98,0,0,1,.249-.479.913.913,0,0,1,.081-.118s-.214.266-.1.131c.06-.07.12-.144.189-.209s.124-.118.184-.174c.081-.074.2-.1-.107.083.03-.017.06-.044.09-.065a3.06,3.06,0,0,1,.5-.27l-.309.131a2.967,2.967,0,0,1,.724-.192c-.116.017-.227.03-.343.048a9.732,9.732,0,0,1,1.127-.022H51.18a1.311,1.311,0,0,0,1.286-1.307,1.328,1.328,0,0,0-1.29-1.315Z" transform="translate(-45.256 -104.9)" fill="#3b3b3b"/></g></g><g transform="translate(73.633 53.555)"><g transform="translate(0 0)"><path d="M708.767,107.039h1.127a10.692,10.692,0,0,1,1.23.021c-.116-.017-.227-.03-.343-.047a3.275,3.275,0,0,1,.724.189l-.308-.129a2.922,2.922,0,0,1,.471.249.89.89,0,0,1,.116.081s-.261-.214-.128-.1c.068.06.141.12.206.189s.116.124.172.184c.073.081.1.2-.081-.107.017.03.043.06.064.09a3.062,3.062,0,0,1,.266.5l-.129-.309a3,3,0,0,1,.189.724c-.017-.116-.03-.227-.047-.343a14.516,14.516,0,0,1,.021,1.616v12.53a1.286,1.286,0,0,0,2.571,0V108.954a5.319,5.319,0,0,0-.163-1.517,4.153,4.153,0,0,0-3.432-2.927,16.917,16.917,0,0,0-2.284-.047h-.244a1.3,1.3,0,0,0-1.286,1.286,1.317,1.317,0,0,0,1.29,1.29Z" transform="translate(-707.476 -104.448)" fill="#3b3b3b"/></g></g><g transform="translate(58.695 53.574)"><path d="M360.163,107.471h6.466a1.286,1.286,0,0,0,0-2.571h-6.466a1.286,1.286,0,0,0,0,2.571Z" transform="translate(-358.876 -104.9)" fill="#3b3b3b"/></g><g transform="translate(54.312 51.276)"><g transform="translate(0 0)"><path d="M256.6,52.563v6.051a1.286,1.286,0,0,0,2.571,0V52.563a1.286,1.286,0,0,0-2.571,0Z" transform="translate(-256.6 -51.276)" fill="#3b3b3b"/></g></g><g transform="translate(45.295 61.496)"><g transform="translate(0 0)"><path d="M47.463,289.029H79.251c.433,0,.861,0,1.294,0H80.6a1.286,1.286,0,1,0,0-2.571H48.813c-.433,0-.861,0-1.294,0h-.056a1.286,1.286,0,1,0,0,2.571Z" transform="translate(-46.176 -286.456)" fill="#3b3b3b"/></g></g><g transform="translate(52.413 57.478)"><g transform="translate(0)"><path d="M213.563,196.571h3.758a1.286,1.286,0,0,0,0-2.571h-3.758a1.286,1.286,0,1,0,0,2.571Z" transform="translate(-212.276 -194)" fill="#3b3b3b"/></g></g><g transform="translate(69.34 51.341)"><g transform="translate(0 0)"><path d="M607.3,54.063v6.051a1.286,1.286,0,1,0,2.571,0V54.063a1.286,1.286,0,1,0-2.571,0Z" transform="translate(-607.3 -52.776)" fill="#3b3b3b"/></g></g><g transform="translate(67.437 57.478)"><g transform="translate(0)"><path d="M564.163,196.571h3.758a1.286,1.286,0,0,0,0-2.571h-3.758a1.286,1.286,0,1,0,0,2.571Z" transform="translate(-562.877 -194)" fill="#3b3b3b"/></g></g><g transform="translate(72.781 73.385)"><g transform="translate(0 0)"><path d="M694.551,565.615l-4.165-4.152-.591-.592c.124.3.253.6.377.908v-5.416a1.286,1.286,0,0,0-2.571,0v5.421a1.427,1.427,0,0,0,.437.973c.219.219.437.437.66.656.793.788,1.581,1.577,2.374,2.365.553.553,1.11,1.106,1.663,1.658a1.3,1.3,0,0,0,1.817,0,1.315,1.315,0,0,0,0-1.821Z" transform="translate(-687.6 -555.076)" fill="#f29200"/></g></g><g transform="translate(62.898 68.919)"><path d="M476.751,462.037a10.241,10.241,0,0,1-.086,1.307c.017-.116.03-.227.047-.343a10.027,10.027,0,0,1-.7,2.558l.128-.309a10.158,10.158,0,0,1-.673,1.307c-.129.206-.261.411-.407.609l-.1.137c-.017.021-.034.043-.051.069a1.4,1.4,0,0,1,.116-.15c-.017.09-.189.236-.249.3a10.2,10.2,0,0,1-1,1.02c-.09.081-.184.159-.279.236l-.133.107c-.146.12.266-.2.06-.047s-.394.287-.6.416a10.108,10.108,0,0,1-1.474.78l.309-.129a10.151,10.151,0,0,1-2.558.7c.116-.017.227-.03.343-.047a10.243,10.243,0,0,1-2.661,0c.116.017.227.03.343.047a10.029,10.029,0,0,1-2.468-.673l.309.129a9.973,9.973,0,0,1-1.671-.9c-.12-.077-.236-.159-.351-.244-.081-.06-.317-.261.017.017-.064-.051-.129-.1-.188-.154-.236-.193-.463-.4-.677-.609s-.424-.437-.617-.669c-.051-.06-.1-.124-.154-.189-.206-.257.146.2.013.021-.086-.116-.167-.227-.249-.347a9.98,9.98,0,0,1-.964-1.77l.129.309a10.117,10.117,0,0,1-.681-2.52c.017.116.03.227.047.343a10.293,10.293,0,0,1,0-2.618c-.017.116-.03.227-.047.343a10.028,10.028,0,0,1,.7-2.558l-.128.309a10.156,10.156,0,0,1,.673-1.307c.128-.206.261-.411.407-.609l.1-.137c.017-.021.034-.043.051-.069a1.384,1.384,0,0,1-.116.15c.017-.09.189-.236.249-.3a10.19,10.19,0,0,1,1-1.02c.09-.081.184-.159.279-.236l.133-.107c.146-.12-.266.2-.06.047s.394-.287.6-.416a10.1,10.1,0,0,1,1.474-.78l-.309.129a10.146,10.146,0,0,1,2.558-.7c-.116.017-.227.03-.343.047a10.389,10.389,0,0,1,2.631,0c-.116-.017-.227-.03-.343-.047a10.065,10.065,0,0,1,2.541.694l-.309-.129a10.034,10.034,0,0,1,1.77.977c.124.086.24.176.36.261-.351-.249-.09-.069-.013,0s.128.107.193.163c.223.193.437.39.643.6s.4.428.587.656c.06.077.249.334,0-.013.043.06.09.116.133.176.094.129.184.257.27.39a10.148,10.148,0,0,1,.866,1.62l-.129-.309a9.911,9.911,0,0,1,.677,2.494c-.017-.116-.03-.227-.047-.343a10.771,10.771,0,0,1,.086,1.337,1.286,1.286,0,1,0,2.571,0,11.111,11.111,0,0,0-2.173-6.612,11.9,11.9,0,0,0-2.67-2.6,10.883,10.883,0,0,0-3.437-1.594,11.176,11.176,0,0,0-6.869.351,11.29,11.29,0,0,0-5.1,3.925A11.157,11.157,0,0,0,459.1,468.6a11.472,11.472,0,0,0,5.541,4.054,11.172,11.172,0,0,0,14.531-8.853,12.223,12.223,0,0,0,.146-1.766,1.3,1.3,0,0,0-1.286-1.285A1.316,1.316,0,0,0,476.751,462.037Z" transform="translate(-456.965 -450.855)" fill="#f29200"/></g></g></g></svg>