<svg xmlns="http://www.w3.org/2000/svg" xmlns:xlink="http://www.w3.org/1999/xlink" width="40" height="40" viewBox="0 0 40 40"><defs><clipPath id="b"><rect width="40" height="40"/></clipPath></defs><g id="a" clip-path="url(#b)"><g transform="translate(0.858 -0.449)"><g transform="translate(0.449 0.449)"><path d="M25.8,6.625a.632.632,0,0,0-.895-.893L19.3,11.337H12.228L6.624,5.73a.632.632,0,0,0-.893.893l5.605,5.605v7.042L5.731,24.876a.633.633,0,0,0,.895.895l5.605-5.605h7.042l5.605,5.605a.633.633,0,0,0,.895-.895l-5.605-5.605V12.255ZM12.6,12.6h6.3v6.3H12.6Z" transform="translate(2.513 2.512)" fill="#f29200" stroke="#f29200" stroke-width="1"/><path d="M24.255,21.251a.633.633,0,0,0-.632.632v1.739H21.883a.632.632,0,1,0,0,1.265h2.372a.633.633,0,0,0,.632-.632V21.883A.632.632,0,0,0,24.255,21.251Z" transform="translate(11.639 11.639)" fill="#3b3b3b" stroke="#3b3b3b" stroke-width="0.5"/><path d="M20.729,22.751H16.368a.632.632,0,1,0,0,1.265h4.361a.632.632,0,1,0,0-1.265Z" transform="translate(8.434 12.511)" fill="#3b3b3b" stroke="#3b3b3b" stroke-width="0.5"/><path d="M15.214,22.751H10.853a.632.632,0,1,0,0,1.265h4.361a.632.632,0,1,0,0-1.265Z" transform="translate(5.23 12.511)" fill="#3b3b3b" stroke="#3b3b3b" stroke-width="0.5"/><path d="M9.7,22.751H5.338a.632.632,0,1,0,0,1.265H9.7a.632.632,0,0,0,0-1.265Z" transform="translate(2.025 12.511)" fill="#3b3b3b" stroke="#3b3b3b" stroke-width="0.5"/><path d="M3.453,23.623H1.714V21.883a.632.632,0,1,0-1.265,0v2.372a.632.632,0,0,0,.632.632H3.453a.632.632,0,1,0,0-1.265Z" transform="translate(-0.449 11.639)" fill="#3b3b3b" stroke="#3b3b3b" stroke-width="0.5"/><path d="M1.081,21.362a.633.633,0,0,0,.632-.632V16.368a.632.632,0,1,0-1.265,0v4.361A.633.633,0,0,0,1.081,21.362Z" transform="translate(-0.449 8.434)" fill="#3b3b3b" stroke="#3b3b3b" stroke-width="0.5"/><path d="M1.081,10.332A.632.632,0,0,0,1.714,9.7V5.338a.632.632,0,0,0-1.265,0V9.7A.634.634,0,0,0,1.081,10.332Z" transform="translate(-0.449 2.024)" fill="#3b3b3b" stroke="#3b3b3b" stroke-width="0.5"/><path d="M1.081,15.847a.633.633,0,0,0,.632-.632V10.853a.632.632,0,0,0-1.265,0v4.361A.632.632,0,0,0,1.081,15.847Z" transform="translate(-0.449 5.229)" fill="#3b3b3b" stroke="#3b3b3b" stroke-width="0.5"/><path d="M3.453.449H1.081a.632.632,0,0,0-.632.632V3.453a.632.632,0,1,0,1.265,0V1.714H3.453a.632.632,0,1,0,0-1.265Z" transform="translate(-0.449 -0.449)" fill="#3b3b3b" stroke="#3b3b3b" stroke-width="0.5"/><path d="M5.338,1.714H9.7A.632.632,0,0,0,9.7.449H5.338a.632.632,0,0,0,0,1.265Z" transform="translate(2.025 -0.449)" fill="#3b3b3b" stroke="#3b3b3b" stroke-width="0.5"/><path d="M10.853,1.714h4.361a.632.632,0,0,0,0-1.265H10.853a.632.632,0,0,0,0,1.265Z" transform="translate(5.23 -0.449)" fill="#3b3b3b" stroke="#3b3b3b" stroke-width="0.5"/><path d="M16.368,1.714h4.361a.632.632,0,0,0,0-1.265H16.368a.632.632,0,0,0,0,1.265Z" transform="translate(8.434 -0.449)" fill="#3b3b3b" stroke="#3b3b3b" stroke-width="0.5"/><path d="M24.255.449H21.883a.632.632,0,1,0,0,1.265h1.739V3.453a.632.632,0,1,0,1.265,0V1.081A.631.631,0,0,0,24.255.449Z" transform="translate(11.639 -0.449)" fill="#3b3b3b" stroke="#3b3b3b" stroke-width="0.5"/><path d="M23.383,4.707a.632.632,0,0,0-.632.632V9.7a.632.632,0,1,0,1.265,0V5.338A.631.631,0,0,0,23.383,4.707Z" transform="translate(12.511 2.025)" fill="#3b3b3b" stroke="#3b3b3b" stroke-width="0.5"/><path d="M23.383,10.221a.632.632,0,0,0-.632.632v4.361a.632.632,0,1,0,1.265,0V10.853A.631.631,0,0,0,23.383,10.221Z" transform="translate(12.511 5.229)" fill="#3b3b3b" stroke="#3b3b3b" stroke-width="0.5"/><path d="M23.383,15.735a.633.633,0,0,0-.632.632v4.361a.632.632,0,1,0,1.265,0V16.367A.632.632,0,0,0,23.383,15.735Z" transform="translate(12.511 8.434)" fill="#3b3b3b" stroke="#3b3b3b" stroke-width="0.5"/><path d="M4.9,9.947a.632.632,0,0,0,.632-.632V5.567H9.278a.632.632,0,1,0,0-1.265H4.9a.632.632,0,0,0-.632.632v4.38A.633.633,0,0,0,4.9,9.947Z" transform="translate(1.769 1.79)" fill="#3b3b3b" stroke="#3b3b3b" stroke-width="0.5"/><path d="M9.91,21.14a.632.632,0,0,0-.632-.632H5.53V16.761a.632.632,0,0,0-1.265,0v4.38a.632.632,0,0,0,.632.632h4.38A.635.635,0,0,0,9.91,21.14Z" transform="translate(1.769 8.663)" fill="#3b3b3b" stroke="#3b3b3b" stroke-width="0.5"/><path d="M21.177,16.128a.633.633,0,0,0-.632.632v3.746H16.8a.632.632,0,1,0,0,1.265h4.38a.633.633,0,0,0,.632-.632v-4.38A.635.635,0,0,0,21.177,16.128Z" transform="translate(8.684 8.662)" fill="#3b3b3b" stroke="#3b3b3b" stroke-width="0.5"/><path d="M21.193,4.3H16.814a.632.632,0,0,0,0,1.265h3.744V9.314a.632.632,0,1,0,1.265,0V4.934A.631.631,0,0,0,21.193,4.3Z" transform="translate(8.693 1.79)" fill="#3b3b3b" stroke="#3b3b3b" stroke-width="0.5"/></g></g></g></svg>