<svg xmlns="http://www.w3.org/2000/svg" xmlns:xlink="http://www.w3.org/1999/xlink" width="40" height="40" viewBox="0 0 40 40"><defs><clipPath id="b"><rect width="40" height="40"/></clipPath></defs><g id="a" clip-path="url(#b)"><g transform="translate(-13.347 -14.438)"><g transform="translate(14 15)"><g transform="translate(4.291 24.272)"><path d="M48.459,38.7A1.689,1.689,0,0,0,46.768,37H41.692A1.689,1.689,0,0,0,40,38.7v5.054a1.689,1.689,0,0,0,1.692,1.7h5.029a1.689,1.689,0,0,0,1.692-1.7V38.7Zm-.94,5.1a.744.744,0,0,1-.752.756H41.692a.744.744,0,0,1-.752-.756V38.7a.744.744,0,0,1,.752-.756h5.029a.744.744,0,0,1,.752.756v5.1Z" transform="translate(-29.201 -37)" fill="#004e98" stroke="#004e98" stroke-width="0.6"/><path d="M48.459,38.7A1.689,1.689,0,0,0,46.768,37H41.692A1.689,1.689,0,0,0,40,38.7v5.054a1.689,1.689,0,0,0,1.692,1.7h5.029a1.689,1.689,0,0,0,1.692-1.7V38.7Zm-.94,5.1a.744.744,0,0,1-.752.756H41.692a.744.744,0,0,1-.752-.756V38.7a.744.744,0,0,1,.752-.756h5.029a.744.744,0,0,1,.752.756v5.1Z" transform="translate(-40 -37)" fill="#004e98" stroke="#004e98" stroke-width="0.6"/><path d="M48.459,38.7A1.689,1.689,0,0,0,46.768,37H41.692A1.689,1.689,0,0,0,40,38.7v5.054a1.689,1.689,0,0,0,1.692,1.7h5.029a1.689,1.689,0,0,0,1.692-1.7V38.7Zm-.94,5.1a.744.744,0,0,1-.752.756H41.692a.744.744,0,0,1-.752-.756V38.7a.744.744,0,0,1,.752-.756h5.029a.744.744,0,0,1,.752.756v5.1Z" transform="translate(-18.403 -37)" fill="#004e98" stroke="#004e98" stroke-width="0.6"/></g><g transform="translate(4.29 12.797)"><path d="M48.459,38.7A1.689,1.689,0,0,0,46.768,37H41.692A1.689,1.689,0,0,0,40,38.7v5.054a1.689,1.689,0,0,0,1.692,1.7h5.029a1.689,1.689,0,0,0,1.692-1.7V38.7Zm-.94,5.1a.744.744,0,0,1-.752.756H41.692a.744.744,0,0,1-.752-.756V38.7a.744.744,0,0,1,.752-.756h5.029a.744.744,0,0,1,.752.756v5.1Z" transform="translate(-29.294 -37)" fill="#004e98" stroke="#004e98" stroke-width="0.6"/><path d="M48.459,38.7A1.689,1.689,0,0,0,46.768,37H41.692A1.689,1.689,0,0,0,40,38.7v5.054a1.689,1.689,0,0,0,1.692,1.7h5.029a1.689,1.689,0,0,0,1.692-1.7V38.7Zm-.94,5.1a.744.744,0,0,1-.752.756H41.692a.744.744,0,0,1-.752-.756V38.7a.744.744,0,0,1,.752-.756h5.029a.744.744,0,0,1,.752.756v5.1Z" transform="translate(-18.589 -37)" fill="#004e98" stroke="#004e98" stroke-width="0.6"/><path d="M28.46,38.7A1.689,1.689,0,0,0,26.768,37H21.692A1.689,1.689,0,0,0,20,38.7v5.054a1.689,1.689,0,0,0,1.692,1.7h5.029a1.689,1.689,0,0,0,1.692-1.7V38.7Z" transform="translate(-20 -37)" fill="#004e98"/></g><path d="M27.393,23.914h1.17a1.379,1.379,0,0,0,1.393-1.393V16.393A1.379,1.379,0,0,0,28.563,15h-1.17A1.379,1.379,0,0,0,26,16.393v6.184A1.368,1.368,0,0,0,27.393,23.914Zm-.279-7.521a.3.3,0,0,1,.279-.279h1.17a.3.3,0,0,1,.279.279v6.184a.3.3,0,0,1-.279.279h-1.17a.3.3,0,0,1-.279-.279Z" transform="translate(-19.383 -15)" fill="#004e98" stroke="#004e98" stroke-width="0.2"/><path d="M66.393,23.914h1.17a1.379,1.379,0,0,0,1.393-1.393V16.393A1.379,1.379,0,0,0,67.563,15h-1.17A1.379,1.379,0,0,0,65,16.393v6.184A1.368,1.368,0,0,0,66.393,23.914Zm-.279-7.521a.3.3,0,0,1,.279-.279h1.17a.3.3,0,0,1,.279.279v6.184a.3.3,0,0,1-.279.279h-1.17a.3.3,0,0,1-.279-.279Z" transform="translate(-36.878 -15)" fill="#004e98" stroke="#004e98" stroke-width="0.2"/><path d="M34.625,23.114h17.5a.561.561,0,1,0,0-1.114h-17.5a.561.561,0,1,0,0,1.114Z" transform="translate(-24.059 -18.1)" fill="#004e98" stroke="#004e98" stroke-width="0.6"/><path d="M18.03,56.537H48.665a4.038,4.038,0,0,0,4.03-4V26a4.038,4.038,0,0,0-4.03-4H47.119a.548.548,0,1,0,0,1.1h1.49A2.935,2.935,0,0,1,51.535,26V52.59A2.935,2.935,0,0,1,48.61,55.5H18.03A2.935,2.935,0,0,1,15.1,52.59V26A2.935,2.935,0,0,1,18.03,23.1h1.49a.548.548,0,1,0,0-1.1H18.03A4.038,4.038,0,0,0,14,26V52.59A4.028,4.028,0,0,0,18.03,56.537Z" transform="translate(-14 -18.1)" fill="#004e98" stroke="#004e98" stroke-width="0.8"/></g></g></g></svg>