<svg xmlns="http://www.w3.org/2000/svg" xmlns:xlink="http://www.w3.org/1999/xlink" width="40" height="40" viewBox="0 0 40 40"><defs><clipPath id="b"><rect width="40" height="40"/></clipPath></defs><g id="a" clip-path="url(#b)"><g transform="translate(1 5)"><path d="M75.49,100.787l-2.419-3.822A2.619,2.619,0,0,0,71.08,96H62.72a2.619,2.619,0,0,0-1.992.965l-2.419,3.822a2.6,2.6,0,0,1-1.95,1.029H50.908A2.908,2.908,0,0,0,48,104.723v17.446a2.908,2.908,0,0,0,2.908,2.908H82.892a2.908,2.908,0,0,0,2.908-2.908V104.723a2.908,2.908,0,0,0-2.908-2.908H77.531A2.778,2.778,0,0,1,75.49,100.787Z" transform="translate(-48 -96)" fill="rgba(0,0,0,0)" stroke="#294a92" stroke-linecap="round" stroke-linejoin="round" stroke-width="2.3"/><ellipse cx="6.96" cy="7.424" rx="6.96" ry="7.424" transform="translate(12.064 8.352)" fill="rgba(0,0,0,0)" stroke="#294a92" stroke-miterlimit="10" stroke-width="2.3"/><path d="M102.181,138v-2H100v2" transform="translate(-95.275 -132.365)" fill="rgba(0,0,0,0)" stroke="#294a92" stroke-linecap="round" stroke-linejoin="round" stroke-width="1"/></g></g></svg>