<svg xmlns="http://www.w3.org/2000/svg" xmlns:xlink="http://www.w3.org/1999/xlink" width="40" height="40" viewBox="0 0 40 40"><defs><clipPath id="b"><rect width="40" height="40"/></clipPath></defs><g id="a" clip-path="url(#b)"><path d="M33,21a5.333,5.333,0,1,0-5.333-5.333A5.339,5.339,0,0,0,33,21Zm0-8a2.667,2.667,0,1,1-2.667,2.667A2.67,2.67,0,0,1,33,13Zm5.2,9.922a1.337,1.337,0,0,0-1.488-.169,8.14,8.14,0,0,1-7.427,0,1.337,1.337,0,0,0-1.488.169A8.009,8.009,0,0,0,25,29v1.333a1.333,1.333,0,0,0,1.333,1.333H39.667A1.333,1.333,0,0,0,41,30.333V29A8.009,8.009,0,0,0,38.2,22.922ZM27.667,29a5.341,5.341,0,0,1,1.281-3.466,10.824,10.824,0,0,0,8.1,0A5.341,5.341,0,0,1,38.333,29ZM21,17H17V13a1.333,1.333,0,0,0-2.276-.943l-8,8a1.333,1.333,0,0,0,0,1.885l8,8A1.333,1.333,0,0,0,17,29V25h4a1.333,1.333,0,0,0,1.333-1.333V18.333A1.333,1.333,0,0,0,21,17Zm-1.333,5.333h-4a1.333,1.333,0,0,0-1.333,1.333v2.115L9.552,21l4.781-4.781v2.115a1.333,1.333,0,0,0,1.333,1.333h4Zm2.667-20A1.333,1.333,0,0,1,21,3.667H6.333A2.67,2.67,0,0,0,3.667,6.333V35.667a2.67,2.67,0,0,0,2.667,2.667H21A1.333,1.333,0,1,1,21,41H6.333A5.339,5.339,0,0,1,1,35.667V6.333A5.339,5.339,0,0,1,6.333,1H21A1.333,1.333,0,0,1,22.333,2.333Z" transform="translate(-1 -1)" fill="#004e98"/><path d="M20.144,15.289h-4v-4a1.333,1.333,0,0,0-2.276-.943l-8,8a1.333,1.333,0,0,0,0,1.885l8,8a1.333,1.333,0,0,0,2.276-.943v-4h4a1.333,1.333,0,0,0,1.333-1.333V16.622A1.333,1.333,0,0,0,20.144,15.289Zm-1.333,5.333h-4a1.333,1.333,0,0,0-1.333,1.333V24.07L8.7,19.289l4.781-4.781v2.115a1.333,1.333,0,0,0,1.333,1.333h4Z" transform="translate(-0.144 0.711)" fill="#f29200"/></g></svg>