<svg xmlns="http://www.w3.org/2000/svg" width="36.917" height="36.917" viewBox="0 0 36.917 36.917"><path d="M8.383,19.458a4.922,4.922,0,1,1,4.922-4.922A4.927,4.927,0,0,1,8.383,19.458Zm0-7.383a2.461,2.461,0,1,0,2.461,2.461A2.464,2.464,0,0,0,8.383,12.075Zm-4.8,9.157a1.234,1.234,0,0,1,1.374-.156,7.512,7.512,0,0,0,6.855,0,1.234,1.234,0,0,1,1.374.156,7.391,7.391,0,0,1,2.583,5.61v1.231A1.23,1.23,0,0,1,14.536,29.3H2.231A1.23,1.23,0,0,1,1,28.072V26.842A7.392,7.392,0,0,1,3.582,21.232Zm9.723,5.61a4.929,4.929,0,0,0-1.182-3.2,9.989,9.989,0,0,1-7.479,0,4.929,4.929,0,0,0-1.182,3.2Zm6.153-11.075H23.15V12.075a1.23,1.23,0,0,1,2.1-.87l7.383,7.383a1.23,1.23,0,0,1,0,1.74l-7.383,7.383a1.23,1.23,0,0,1-2.1-.87V23.15H19.458a1.23,1.23,0,0,1-1.231-1.231V17A1.23,1.23,0,0,1,19.458,15.767Zm1.231,4.922h3.692a1.23,1.23,0,0,1,1.231,1.231v1.952l4.413-4.413-4.413-4.413V17a1.23,1.23,0,0,1-1.231,1.231H20.689ZM18.228,2.231a1.23,1.23,0,0,0,1.231,1.231H32.995a2.464,2.464,0,0,1,2.461,2.461V32.995a2.464,2.464,0,0,1-2.461,2.461H19.458a1.231,1.231,0,1,0,0,2.461H32.995a4.927,4.927,0,0,0,4.922-4.922V5.922A4.927,4.927,0,0,0,32.995,1H19.458A1.23,1.23,0,0,0,18.228,2.231Z" transform="translate(-1 -1)" fill="#f29200"/></svg>