<svg xmlns="http://www.w3.org/2000/svg" xmlns:xlink="http://www.w3.org/1999/xlink" width="40" height="40" viewBox="0 0 40 40"><defs><clipPath id="b"><rect width="40" height="40"/></clipPath></defs><g id="a" clip-path="url(#b)"><g transform="translate(-135.611 -64.422)"><g transform="translate(138.611 64.422)"><g transform="translate(0 0)"><g transform="translate(21.155 0.016)"><path d="M623.324,75.2h-7.99c-.072,0-.143-.018-.215-.018,0,0,.183.031.089.009-.049-.013-.1-.018-.148-.031-.067-.018-.134-.036-.2-.058-.027-.009-.054-.022-.085-.031-.134-.045.054.018.049.022-.022.027-.344-.192-.38-.215-.17-.112.085.08-.027-.018-.049-.045-.1-.089-.147-.139s-.094-.1-.139-.147c-.018-.018-.089-.085,0,0s-.018-.027-.031-.049-.223-.335-.2-.358.058.174.031.076c-.009-.027-.022-.058-.031-.085a2.2,2.2,0,0,1-.067-.228c-.018-.08-.022-.3-.022-.058,0-.063-.013-.125-.013-.183s0-.089,0-.139V69.483c0-1.247.031-2.5,0-3.749v-.067c-.51.21-1.019.42-1.524.63l3.54,3.539,5.6,5.6,1.292,1.291a.894.894,0,0,0,1.265-1.265l-3.539-3.539-5.6-5.6-1.292-1.292a.906.906,0,0,0-1.528.635v7.619a3.691,3.691,0,0,0,.617,2.234,3.5,3.5,0,0,0,2.882,1.47h3.879c1.291,0,2.587.018,3.883,0h.067a.9.9,0,0,0,.894-.894A.912.912,0,0,0,623.324,75.2Z" transform="translate(-612 -64.781)" fill="#3b3b3b" stroke="#3b3b3b" stroke-width="0.5"/></g><path d="M170.2,75.754v24.3c0,.156,0,.308-.013.465-.013.215.045-.2,0,0-.009.04-.013.08-.022.121a2.853,2.853,0,0,1-.085.322c-.013.049-.031.094-.049.143-.009.018-.013.036-.022.054-.036.089-.027.076.022-.049.022.036-.143.282-.161.313-.049.085-.107.165-.161.246-.112.17.13-.147,0,0l-.076.089c-.071.08-.147.156-.223.232-.036.031-.071.067-.107.1l-.089.076c.1-.072.116-.089.063-.049-.179.1-.349.219-.532.313s.192-.067,0,0l-.112.04a2.859,2.859,0,0,1-.349.1c-.058.013-.121.022-.179.036-.2.04.156-.009.022,0-.116.009-.228.018-.344.018H145.622c-.938,0-1.872.009-2.811,0-.085,0-.165,0-.25-.009-.022,0-.219,0-.067,0s-.036-.009-.063-.013a2.356,2.356,0,0,1-.295-.072l-.17-.054c-.04-.013-.228-.121-.116-.04s-.031-.018-.054-.027c-.054-.027-.107-.054-.156-.08a2.922,2.922,0,0,1-.25-.156c-.018-.013-.179-.1-.054-.036s-.022-.022-.045-.04a3.252,3.252,0,0,1-.255-.241c-.036-.04-.192-.165-.192-.219.022.031.045.058.067.089l-.067-.094c-.031-.049-.067-.1-.094-.147-.049-.085-.1-.17-.143-.259a.6.6,0,0,1-.049-.107c.049.125.058.139.022.049-.013-.036-.027-.076-.04-.112-.031-.094-.063-.192-.085-.286-.013-.049-.089-.259-.058-.3a1.04,1.04,0,0,0,.018.116c0-.04-.009-.08-.013-.125s0-.1-.009-.156V68.635c0-.063,0-.125,0-.188a.6.6,0,0,1,.013-.183c-.018.134-.022.156,0,.054a.261.261,0,0,0,.009-.058,3.123,3.123,0,0,1,.085-.353c.018-.063.049-.241.1-.282-.045.031-.072.156-.018.049.027-.054.054-.107.08-.156a2.551,2.551,0,0,1,.183-.3l.036-.049c.058-.076.045-.063-.036.04,0-.013.063-.076.076-.089.072-.08.143-.161.219-.232.045-.045.179-.21.241-.21-.045,0-.143.1-.04.036.067-.045.13-.089.2-.13.085-.049.17-.1.259-.143l.054-.027c.089-.04.072-.036-.049.018a.73.73,0,0,1,.112-.045c.1-.036.21-.072.317-.1.049-.013.1-.022.147-.036s.273-.022.121-.022.045,0,.067,0c.063,0,.125-.009.188-.009h17.911c-.21-.089-.42-.174-.63-.264l3.539,3.539,5.6,5.6,1.292,1.292a.894.894,0,0,0,1.265-1.265L168.012,71.4l-5.689-5.689-.769-.769a1.26,1.26,0,0,0-.885-.514c-.447-.018-.9,0-1.35,0H144.1c-.465,0-.934-.013-1.4,0a4.266,4.266,0,0,0-4.085,4.214c-.009,1.064,0,2.127,0,3.191V100a4.353,4.353,0,0,0,1.341,3.289,4.3,4.3,0,0,0,2.873,1.131h24.288a6.147,6.147,0,0,0,1.935-.192A4.27,4.27,0,0,0,172,100.15V75.759a.9.9,0,0,0-1.8,0Z" transform="translate(-138.611 -64.422)" fill="#3b3b3b" stroke="#3b3b3b" stroke-width="0.7"/></g><g transform="translate(8.877 13.914)"><g transform="translate(3.081)"><path d="M413.909,380.524c0,.1,0,.21-.013.313a1.192,1.192,0,0,0-.013.125c-.013-.165.022-.134.009-.054a4.313,4.313,0,0,1-.143.585c-.013.045-.045.206-.081.224.049-.022.081-.165.009-.022-.022.045-.04.089-.067.134a4.724,4.724,0,0,1-.273.456c-.009.013-.121.174-.036.049s-.027.031-.04.045c-.049.058-.1.116-.156.174s-.125.125-.188.183c-.036.031-.072.067-.112.1a.317.317,0,0,1-.045.036c-.076.058-.063.049.04-.031-.009.045-.152.107-.192.134-.08.054-.165.1-.25.152a1.857,1.857,0,0,1-.21.107.394.394,0,0,1-.107.049c.121-.049.139-.058.049-.022-.018.009-.036.013-.058.022a3.586,3.586,0,0,1-.518.147l-.152.027c-.165.027-.009.045.027,0a1.006,1.006,0,0,1-.308.022,2.344,2.344,0,0,1-.25,0c-.036,0-.291.009-.308-.022,0,0,.228.036.054.009-.04-.009-.08-.013-.121-.022a2.377,2.377,0,0,1-.295-.072c-.1-.027-.192-.058-.286-.089a1.167,1.167,0,0,0-.112-.045c.17.036.112.049.049.018a3.914,3.914,0,0,1-.518-.286c-.04-.027-.183-.094-.192-.134.013.063.134.116.018.013-.036-.031-.076-.063-.112-.094a4.091,4.091,0,0,1-.384-.4c-.022-.027-.1-.13-.022-.022s-.027-.036-.036-.049c-.045-.063-.089-.13-.13-.2a2.919,2.919,0,0,1-.143-.259l-.054-.107c-.036-.076-.045-.2,0,0-.036-.174-.121-.34-.165-.514-.018-.08-.036-.156-.049-.237,0-.036,0-.206-.013-.063s0-.063,0-.1a4.231,4.231,0,0,1,0-.532c0-.054.009-.1.013-.156.009-.134-.04.228,0,.022.018-.1.036-.2.063-.3s.045-.174.072-.259c.013-.036.058-.241.089-.255,0,0-.094.206-.018.049.018-.036.031-.071.049-.107.049-.1.1-.192.156-.286.045-.076.094-.147.143-.223a.608.608,0,0,1,.067-.094c-.031.009-.116.139-.031.04.13-.147.259-.29.4-.424.031-.031.246-.2.134-.116s.112-.076.147-.1a4.764,4.764,0,0,1,.492-.273c.143-.072,0-.045-.022.009a.737.737,0,0,1,.112-.045c.085-.031.17-.058.255-.085s.174-.049.264-.067a1.133,1.133,0,0,1,.121-.022c.094-.018.2.013,0,0,.179.018.38-.027.563-.022.085,0,.165.013.25.018.206.013-.156-.027-.022,0,.058.009.121.018.179.031a4.268,4.268,0,0,1,.608.174c.161.058-.045-.022-.049-.022a.753.753,0,0,1,.161.076c.089.045.174.089.259.138s.183.116.273.174a.1.1,0,0,1,.022.018c.076.058.063.045-.04-.031.031,0,.112.094.134.112a4,4,0,0,1,.411.416s.076.076.076.089c-.08-.1-.089-.116-.031-.04l.036.049c.063.089.121.179.174.273s.094.17.139.259c.013.027.067.107.063.134-.013-.036-.031-.067-.045-.1a1.183,1.183,0,0,0,.045.112,4.294,4.294,0,0,1,.161.581c.009.04.013.081.022.121.036.2-.013-.179,0,0,0,.147.013.273.018.4a.894.894,0,0,0,1.788,0,4.816,4.816,0,0,0-3.191-4.482,4.754,4.754,0,0,0-5.17,1.408,4.883,4.883,0,0,0-1.122,2.762,4.7,4.7,0,0,0,.675,2.775,4.747,4.747,0,0,0,8.8-2.462.892.892,0,1,0-1.783,0Z" transform="translate(-406.2 -375.777)" fill="#f29200"/></g><g transform="translate(0 7.641)"><path d="M349.355,548.425c.089.058.179.121.268.183.134.094,0-.009-.027-.022a.9.9,0,0,1,.125.1,4.41,4.41,0,0,1,.46.451c.027.031.143.215.188.224-.049-.009-.094-.13-.022-.027l.094.134a5.351,5.351,0,0,1,.326.559c.022.049.045.1.071.148.072.148,0-.013-.013-.031a1.493,1.493,0,0,1,.112.308,5.211,5.211,0,0,1,.161.643.6.6,0,0,0,.022.134c-.054-.067-.013-.152-.009-.036s.018.228.022.34v3.374c0,.192.049-.139.009-.027-.018.045-.022.1-.036.143l-.036.112c-.031-.009.094-.174.018-.054-.031.049-.058.1-.089.148-.085.143.13-.121,0,0a.681.681,0,0,0-.08.08c-.116.125.04-.045.049-.031a1.7,1.7,0,0,1-.246.148c-.013-.031.188-.058.054-.027l-.143.04c-.183.054.031-.022.031,0,0,0-.134,0-.121,0h-10.9c-.237,0,0,0,0,.013a2.078,2.078,0,0,1-.286-.076c0-.013.2.107.054.018-.04-.027-.085-.049-.125-.071-.161-.089.036,0,.022.018a1.55,1.55,0,0,1-.125-.121c-.1-.094.063.027.031.049a1.114,1.114,0,0,1-.08-.121,1.211,1.211,0,0,1-.067-.125c.013,0,.067.219.027.054-.009-.036-.022-.076-.031-.112,0-.018-.009-.04-.013-.058-.013-.081-.013-.076,0,0,0,.018,0,.04.009.058a1.079,1.079,0,0,1,0-.121v-.009c-.013-.88,0-1.765,0-2.646v-.59q0-.154.013-.308a.706.706,0,0,1,.018-.17c0,.036-.009.067-.013.1,0-.045.013-.089.022-.134a5.29,5.29,0,0,1,.138-.585c.031-.094.063-.188.1-.282.058-.156.045-.009,0,0a1.653,1.653,0,0,0,.08-.179,4.8,4.8,0,0,1,.291-.509,1.563,1.563,0,0,1,.188-.264c-.018.018-.125.152-.018.027.04-.049.085-.1.125-.147.13-.143.268-.282.411-.411a1.387,1.387,0,0,1,.125-.1c.139-.112.022.013,0,0a2.856,2.856,0,0,0,.268-.183.9.9,0,1,0-.9-1.546,5.723,5.723,0,0,0-2.623,4.782c0,.934,0,1.873,0,2.806a2.765,2.765,0,0,0,.429,1.7,2.436,2.436,0,0,0,2,1.028c.572,0,1.144,0,1.712,0h8.924a2.958,2.958,0,0,0,.93-.107,2.429,2.429,0,0,0,1.676-2.284c.018-.93,0-1.859,0-2.789a7.451,7.451,0,0,0-.156-1.694,5.686,5.686,0,0,0-1.381-2.552,6,6,0,0,0-1.122-.921.894.894,0,0,0-.912,1.537Z" transform="translate(-337.256 -546.766)" fill="#f29200"/></g></g></g></g></g></svg>