<svg xmlns="http://www.w3.org/2000/svg" xmlns:xlink="http://www.w3.org/1999/xlink" width="40" height="40" viewBox="0 0 40 40"><defs><clipPath id="b"><rect width="40" height="40"/></clipPath></defs><g id="a" clip-path="url(#b)"><g transform="translate(-2 -2)"><path d="M28.333,35.667A1.333,1.333,0,0,1,27,34.333V29.667H22.333a1.333,1.333,0,0,1,0-2.667H27V22.333a1.333,1.333,0,1,1,2.667,0V27h4.667a1.333,1.333,0,0,1,0,2.667H29.667v4.667A1.333,1.333,0,0,1,28.333,35.667Z" transform="translate(-6.333 -6.333)" fill="#f29200"/><path d="M12.667,2A10.667,10.667,0,0,0,2,12.667V31.333A10.667,10.667,0,0,0,12.667,42H31.333A10.667,10.667,0,0,0,42,31.333V14.4a5.333,5.333,0,0,0-1.694-3.9L32.729,3.434A5.333,5.333,0,0,0,29.09,2Zm-8,10.667a8,8,0,0,1,8-8h16v4A5.333,5.333,0,0,0,34,14h5.3a2.665,2.665,0,0,1,.031.4V31.333a8,8,0,0,1-8,8H12.667a8,8,0,0,1-8-8Zm26.667-4V5.779l5.951,5.554H34A2.667,2.667,0,0,1,31.333,8.667Z" fill="#004e98" fill-rule="evenodd"/></g></g></svg>