<svg xmlns="http://www.w3.org/2000/svg" xmlns:xlink="http://www.w3.org/1999/xlink" width="40" height="40" viewBox="0 0 40 40"><defs><clipPath id="b"><rect width="40" height="40"/></clipPath></defs><g id="a" clip-path="url(#b)"><g transform="translate(-19 -19)"><path d="M55.875,27.387c0-4.626-3.053-8.387-7.37-8.387H26.828A8.13,8.13,0,0,0,19,27.387V50.613A8.13,8.13,0,0,0,26.828,59h6.021a1.255,1.255,0,0,0,1.4-1.344,1.3,1.3,0,0,0-1.4-1.406H26.828c-2.324,0-5.161-3.147-5.161-5.637V27.387c0-2.49,2.837-5.679,5.161-5.679H48.505c2.324,0,4.662,3.189,4.662,5.679v6.452c0,1.065.366,1.935,1.36,1.935s1.348-.871,1.348-1.935Z" transform="translate(0 0)" fill="#004e98"/><path d="M61.622,51c-1.252,0-1.276,1.024-1.276,2.276v7.07h-7.07c-1.252,0-2.276.024-2.276,1.276S52.024,62.9,53.276,62.9h7.07v7.07c0,1.252.024,2.276,1.276,2.276S62.9,71.22,62.9,69.968V62.9h7.07c1.252,0,2.276-.024,2.276-1.276s-1.024-1.276-2.276-1.276H62.9v-7.07C62.9,52.024,62.874,51,61.622,51Z" transform="translate(-13.244 -13.244)" fill="#f29200"/></g></g></svg>