<svg xmlns="http://www.w3.org/2000/svg" xmlns:xlink="http://www.w3.org/1999/xlink" width="40" height="40" viewBox="0 0 40 40"><defs><clipPath id="b"><rect width="40" height="40"/></clipPath></defs><g id="a" clip-path="url(#b)"><g transform="translate(-18.5 -14.5)"><g transform="translate(22.5 14.5)"><path d="M50.644,32.869,49.6,58.018a.976.976,0,0,1-.953.911H30.357a.977.977,0,0,1-.953-.911L28.356,32.869a1.429,1.429,0,0,0-2.855.119l1.048,25.149a3.833,3.833,0,0,0,3.808,3.649H48.643a3.832,3.832,0,0,0,3.808-3.649L53.5,32.988a1.429,1.429,0,0,0-2.855-.119Z" transform="translate(-23.786 -21.786)" fill="#e96767"/><path d="M48,37.143V56.571a1.143,1.143,0,1,0,2.286,0V37.143a1.143,1.143,0,1,0-2.286,0Z" transform="translate(-33.429 -23.714)" fill="#e96767"/><path d="M37,37.176l.571,19.429a1.143,1.143,0,1,0,2.285-.067l-.571-19.429A1.143,1.143,0,1,0,37,37.176Z" transform="translate(-28.714 -23.714)" fill="#e96767"/><path d="M58.572,37.109,58,56.538a1.143,1.143,0,1,0,2.285.067l.571-19.429a1.143,1.143,0,0,0-2.285-.067Z" transform="translate(-37.714 -23.714)" fill="#e96767"/><path d="M23.929,25.857H52.5A1.429,1.429,0,1,0,52.5,23H23.929a1.429,1.429,0,1,0,0,2.857Z" transform="translate(-22.5 -18.143)" fill="#e96767"/><path d="M40.343,20.321l.595-2.082a1.385,1.385,0,0,1,1.17-.882H47.26a1.384,1.384,0,0,1,1.17.882l.595,2.082,2.747-.785-.595-2.082A4.221,4.221,0,0,0,47.26,14.5H42.108a4.222,4.222,0,0,0-3.917,2.954L37.6,19.536Z" transform="translate(-28.97 -14.5)" fill="#e96767"/></g></g></g></svg>