<svg xmlns="http://www.w3.org/2000/svg" xmlns:xlink="http://www.w3.org/1999/xlink" width="40" height="40" viewBox="0 0 40 40"><defs><clipPath id="b"><rect width="40" height="40"/></clipPath></defs><g id="a" clip-path="url(#b)"><g transform="translate(-3344.18 -3982.847)"><g transform="translate(3346.18 3983.513)"><path d="M95.8,137.54v18.285a3.975,3.975,0,0,1-3.975,3.975H67.975A3.975,3.975,0,0,1,64,155.825v-23.85A3.975,3.975,0,0,1,67.975,128H84.618" transform="translate(-64 -122.3)" fill="none" stroke="#16bac2" stroke-linecap="round" stroke-linejoin="round" stroke-width="3.2"/><path d="M233.429,48.53a1.621,1.621,0,0,0-2.344-.057l-1.249,1.243a.807.807,0,0,0,0,1.142L230.981,52a.807.807,0,0,0,1.145,0l1.217-1.211A1.641,1.641,0,0,0,233.429,48.53Zm-6.117,3.709L209.091,70.428a.908.908,0,0,0-.233.4l-.843,2.51a.395.395,0,0,0,.491.491l2.508-.843a.909.909,0,0,0,.4-.233L229.6,54.526a.908.908,0,0,0,0-1.278l-1-1.009A.908.908,0,0,0,227.312,52.239Z" transform="translate(-196.589 -48)" fill="#16bac2" stroke="#16bac2" stroke-width="1"/></g></g></g></svg>