<svg xmlns="http://www.w3.org/2000/svg" xmlns:xlink="http://www.w3.org/1999/xlink" width="40" height="40" viewBox="0 0 40 40"><defs><clipPath id="b"><rect width="40" height="40"/></clipPath></defs><g id="a" clip-path="url(#b)"><g transform="translate(0 0)"><g transform="translate(0)"><path d="M16.425,21.667a5.835,5.835,0,0,1-11.184,0H1.668a1.667,1.667,0,1,1,0-3.333H5.242a5.835,5.835,0,0,1,11.184,0H38.332a1.667,1.667,0,1,1,0,3.333ZM23.575,32.5a5.835,5.835,0,0,1,11.184,0h3.574a1.667,1.667,0,1,1,0,3.333H34.758a5.835,5.835,0,0,1-11.184,0H1.668a1.667,1.667,0,1,1,0-3.333Zm0-28.333a5.835,5.835,0,0,1,11.184,0h3.574a1.667,1.667,0,1,1,0,3.333H34.758a5.835,5.835,0,0,1-11.184,0H1.668a1.667,1.667,0,1,1,0-3.333Zm5.592,4.167a2.5,2.5,0,1,0-2.5-2.5A2.5,2.5,0,0,0,29.167,8.333Zm0,28.333a2.5,2.5,0,1,0-2.5-2.5A2.5,2.5,0,0,0,29.167,36.667ZM10.833,17.5a2.5,2.5,0,1,0,2.5,2.5A2.5,2.5,0,0,0,10.833,17.5Z" transform="translate(0 0)" fill="#004e98" stroke="#fff" stroke-width="0.2" fill-rule="evenodd"/><path d="M16.425,23.481a5.835,5.835,0,0,1-11.184,0H1.668a1.667,1.667,0,1,1,0-3.333H5.242a5.835,5.835,0,0,1,11.184,0H38.332a1.667,1.667,0,1,1,0,3.333Zm-5.592-4.167a2.5,2.5,0,1,0,2.5,2.5A2.5,2.5,0,0,0,10.833,19.314Z" transform="translate(0 -1.814)" fill="#004e98" stroke="#fff" stroke-width="0.2" fill-rule="evenodd"/></g></g></g></svg>