<svg xmlns="http://www.w3.org/2000/svg" xmlns:xlink="http://www.w3.org/1999/xlink" width="40" height="40" viewBox="0 0 40 40"><defs><clipPath id="b"><rect width="40" height="40"/></clipPath></defs><g id="a" clip-path="url(#b)"><g transform="translate(-295.756 -302.28)"><path d="M8.837,1h30.49a4.67,4.67,0,0,1,3.418,1.518,5.33,5.33,0,0,1,1.421,3.649V30.484a10.856,10.856,0,0,1-2.892,7.428C39.49,39.816,35.027,41,32.318,41H8.838a4.67,4.67,0,0,1-3.418-1.518A5.33,5.33,0,0,1,4,35.832V6.166A5.324,5.324,0,0,1,5.421,2.517,4.676,4.676,0,0,1,8.838,1ZM34.525,2.875V4.71a4.545,4.545,0,0,1-1.211,3.112A3.99,3.99,0,0,1,30.4,9.115H15.759a3.992,3.992,0,0,1-2.914-1.293A4.549,4.549,0,0,1,11.633,4.71V2.875h-2.8a2.984,2.984,0,0,0-2.177.968A3.4,3.4,0,0,0,5.75,6.167V35.833a3.4,3.4,0,0,0,.906,2.324,2.98,2.98,0,0,0,2.177.968h23.48c2.225,0,6.248-.972,7.714-2.54a8.915,8.915,0,0,0,2.377-6.1V6.167A3.4,3.4,0,0,0,41.5,3.843a2.979,2.979,0,0,0-2.177-.968h-4.8Zm-21.133,0V4.71a2.617,2.617,0,0,0,.7,1.786,2.29,2.29,0,0,0,1.672.743H30.4A2.3,2.3,0,0,0,32.074,6.5a2.611,2.611,0,0,0,.7-1.786V2.875Z" transform="translate(291.756 301.281)" fill="#004e98" stroke="#004e98" stroke-width="0.3"/><path d="M11.265,30.257a.885.885,0,1,1,0-1.768h15.14a.885.885,0,1,1,0,1.768Zm0-6.762a.885.885,0,1,1,0-1.768H31.9a.885.885,0,1,1,0,1.768Zm0-6.762a.885.885,0,1,1,0-1.768H31.9a.885.885,0,1,1,0,1.768Z" transform="translate(294.174 302.7)" fill="#f29200" stroke="#f29200" stroke-width="0.3"/></g></g></svg>