<svg xmlns="http://www.w3.org/2000/svg" xmlns:xlink="http://www.w3.org/1999/xlink" width="40" height="40" viewBox="0 0 40 40"><defs><clipPath id="b"><rect width="40" height="40"/></clipPath></defs><g id="a" clip-path="url(#b)"><g transform="translate(-3.34 -55.66)"><g transform="translate(3.34 62.66)"><path d="M28.731,83.616H41.443a21.73,21.73,0,0,0-.378-3.161h-13.8a6.229,6.229,0,0,1,1.468,3.161Zm11.824-5.223a20.514,20.514,0,0,0-3.447-6.708l-2.335,2.567a.879.879,0,0,1-1.326,0,1.1,1.1,0,0,1,0-1.458l2.37-2.6A17.372,17.372,0,0,0,24.93,64.8v3.873a.942.942,0,1,1-1.876,0V64.724A17.258,17.258,0,0,0,10.866,70.19l2.37,2.6a1.1,1.1,0,0,1,0,1.458.878.878,0,0,1-1.325,0L9.575,71.686a20.493,20.493,0,0,0-3.448,6.708h13.8l-3.288-8.576a1.068,1.068,0,0,1,.5-1.345.907.907,0,0,1,1.223.548l3.594,9.373h18.6ZM5.616,80.454a21.9,21.9,0,0,0-.378,3.161H17.95a6.219,6.219,0,0,1,1.468-3.161H5.616ZM24.2,84.247a1.067,1.067,0,0,1-.5,1.345.907.907,0,0,1-1.223-.548l-1.348-3.517a3.6,3.6,0,0,0-.333.324,4.234,4.234,0,0,0,0,5.589,3.37,3.37,0,0,0,5.084,0,4.234,4.234,0,0,0,0-5.589,3.43,3.43,0,0,0-2.542-1.158,3.239,3.239,0,0,0-.487.036Zm-6.25,1.43H4.278a.988.988,0,0,1-.938-1.031A23.108,23.108,0,0,1,8.854,69.487l.006-.007,0,0c.11-.127.222-.253.336-.377a19.079,19.079,0,0,1,14.142-6.44c.179,0,.358,0,.535.008a.813.813,0,0,1,.115-.008.869.869,0,0,1,.179.019A19.143,19.143,0,0,1,37.482,69.1c.114.124.225.25.336.377l0,0,.006.007A23.111,23.111,0,0,1,43.34,84.646a.988.988,0,0,1-.938,1.031H28.729A6.216,6.216,0,0,1,27.207,88.9a5.127,5.127,0,0,1-7.737,0,6.216,6.216,0,0,1-1.522-3.221Z" transform="translate(-3.34 -62.66)" fill="#294a92"/></g></g></g></svg>