<svg xmlns="http://www.w3.org/2000/svg" xmlns:xlink="http://www.w3.org/1999/xlink" width="40" height="40" viewBox="0 0 40 40"><defs><clipPath id="b"><rect width="40" height="40"/></clipPath></defs><g id="a" clip-path="url(#b)"><g transform="translate(-32 -47.018)"><path d="M80,212v21.149a1.434,1.434,0,0,0,1.434,1.434h8.6V222.4a2.151,2.151,0,0,1,2.151-2.151h7.169a2.151,2.151,0,0,1,2.151,2.151v12.188h8.6a1.434,1.434,0,0,0,1.434-1.434V212" transform="translate(-43.698 -149.287)" fill="none" stroke="#294a92" stroke-linecap="round" stroke-linejoin="round" stroke-width="2"/><path d="M72.148,66.656,53.05,48.374a1.513,1.513,0,0,0-1.952,0L32,66.656m32.979-6.9V49.45h-4.3v6.184" transform="translate(0 0)" fill="none" stroke="#294a92" stroke-linecap="round" stroke-linejoin="round" stroke-width="2"/></g></g></svg>