<svg xmlns="http://www.w3.org/2000/svg" xmlns:xlink="http://www.w3.org/1999/xlink" width="40" height="40" viewBox="0 0 40 40"><defs><clipPath id="b"><rect width="40" height="40"/></clipPath></defs><g id="a" clip-path="url(#b)"><g transform="translate(1309.16 -3981.564)"><path d="M47.2,34.693a6.344,6.344,0,0,1-6.338,6.338H27.636a1.212,1.212,0,1,1,0-2.424H40.866a3.915,3.915,0,1,0,0-7.83H12.759a5.723,5.723,0,0,1,0-11.441h4.788a1.211,1.211,0,1,1,0,2.422H12.741a3.3,3.3,0,0,0,0,6.6h28.1A6.341,6.341,0,0,1,47.2,34.692Z" transform="translate(-1316.364 3979.854)" fill="#1d1c1b"/><path d="M23.811,7.738a8.205,8.205,0,0,0-7.105,12.3l4.1,7.109a3.461,3.461,0,0,0,6,0l4.105-7.109h0a8.2,8.2,0,0,0-7.1-12.3Zm5,11.092-4.1,7.114a1.038,1.038,0,0,1-1.8,0L18.8,18.831a5.781,5.781,0,1,1,10.011,0Zm-2.35-2.957v0a2.656,2.656,0,1,1-2.655-2.651,2.656,2.656,0,0,1,2.655,2.651Z" transform="translate(-1312.968 3973.826)" fill="#f29200"/></g></g></svg>