<svg xmlns="http://www.w3.org/2000/svg" width="126.231" height="117.758" viewBox="0 0 126.231 117.758"><g transform="translate(-0.495 -4.7)"><path d="M113.626,91.7V90.09a1.46,1.46,0,0,1,2.919,0V91.7A1.46,1.46,0,0,1,113.626,91.7Zm7.3,1.46a1.463,1.463,0,0,0,1.46-1.46V90.09a1.46,1.46,0,0,0-2.919,0V91.7A1.463,1.463,0,0,0,120.924,93.155Zm-7.3-11.239a1.46,1.46,0,0,0-2.919,0v1.606a1.46,1.46,0,0,0,2.919,0ZM118,84.981a1.463,1.463,0,0,0,1.46-1.46V81.916a1.46,1.46,0,1,0-2.919,0v1.606A1.463,1.463,0,0,0,118,84.981Zm5.839,0a1.463,1.463,0,0,0,1.46-1.46V81.916a1.46,1.46,0,1,0-2.919,0v1.606A1.463,1.463,0,0,0,123.843,84.981ZM86.622,75.056a6.958,6.958,0,0,1-2.919-.584,7.6,7.6,0,0,1-7.736,1.752L57.867,69.8c-.584,1.022-2.481,4.379-3.211,5.4a38.37,38.37,0,0,1,4.233,5.4,10.156,10.156,0,0,1,1.168,3.941l1.606,28.025C62.1,124.976,44,126.144,42.832,113.59l-1.314-23.5a10.225,10.225,0,0,1-1.9,5.693L22.835,118.261a9.469,9.469,0,0,1-7.59,3.8c-7.59.146-12.261-9.05-7.59-15.034l14.889-20V66.152A17.443,17.443,0,0,1,24.878,56.08L36.7,35.645c9.78-16.2,34.448-8.466,32.988,10.51l2.481,8.32L89.249,60.6a7.375,7.375,0,0,1,4.963,6.86l20.873,2.481a1.477,1.477,0,0,1,1.022.584l3.5,4.379H125.3a1.46,1.46,0,0,1,0,2.919H110.852a1.46,1.46,0,0,1,0-2.919h5.109l-1.606-2.189L93.92,70.239A7.893,7.893,0,0,1,86.622,75.056ZM52.758,77.391A18.577,18.577,0,0,1,41.518,82.5v1.606c.584.876,3.065,3.211,2.919,3.941l1.46,25.4a6.716,6.716,0,0,0,6.86,6.131,6.519,6.519,0,0,0,6.131-6.86L57.283,84.689C56.991,81.916,54.217,79.434,52.758,77.391Zm2.189-8.612a7.8,7.8,0,0,1-4.379-4.963c-.146-.584-5.255-17.37-4.963-17.37-.584-9.05,11.969-11.239,14.743-2.773l3.065,10.364c7.444-10.218,1.46-24.084-11.385-24.376a14.926,14.926,0,0,0-12.845,7.3L27.36,57.394a14.24,14.24,0,0,0-1.9,8.466v21.6a2.075,2.075,0,0,1-.292.876L9.99,108.628a6.478,6.478,0,0,0,1.314,9.05,6.656,6.656,0,0,0,9.05-1.314L37.139,93.885a8.426,8.426,0,0,0,1.314-3.8V81.04a1.463,1.463,0,0,1,1.46-1.46,14.646,14.646,0,0,0,12.991-7.3Zm25.106-3.941L62.829,58.707c-.584-.146-1.314-.438-1.46-1.168l-3.8-12.845a4.676,4.676,0,0,0-5.693-3.065,4.5,4.5,0,0,0-3.065,5.693l4.671,15.764a5.056,5.056,0,0,0,2.919,3.065l20.727,7.3C82.681,75.347,85.6,67.027,80.053,64.838ZM87.06,67.9a1.449,1.449,0,0,1,1.606-1.314l2.481.292a4.426,4.426,0,0,0-2.919-3.649L70.42,56.81a1.543,1.543,0,0,1-.876-1.022L68.23,51.555c-.438,1.168-2.044,3.649-2.627,4.817l15.472,5.693a7.482,7.482,0,0,1,4.379,9.926,4.514,4.514,0,0,0,5.109-2.044l-2.189-.292A1.508,1.508,0,0,1,87.06,67.9ZM56.845,17.691A13.02,13.02,0,0,1,69.836,4.7c17.224.73,17.224,25.4,0,26.128A13.242,13.242,0,0,1,56.845,17.691Zm3.065,0A10.092,10.092,0,0,0,69.982,27.763c13.283-.438,13.283-19.559,0-20.143A10,10,0,0,0,59.91,17.691Zm-43.5,41.6-10.8-6.277A10.411,10.411,0,0,1,1.816,39L14.661,16.815a10.246,10.246,0,0,1,14.013-3.8l10.8,6.277a3.345,3.345,0,0,1,1.168,4.671L21.083,58.123A3.62,3.62,0,0,1,16.412,59.291Zm-9.342-8.9,10.8,6.277h0c.292.146.438,0,.584-.146L38.161,22.362c.146-.146,0-.438-.146-.584L27.214,15.5a7.235,7.235,0,0,0-9.926,2.627L4.443,40.316A7.468,7.468,0,0,0,7.071,50.387Zm11.093,3.5A1.647,1.647,0,0,1,17,53.745l-3.941-2.335a10.954,10.954,0,0,1-5.109-6.568,11.1,11.1,0,0,1,1.022-8.32l3.357-5.839a1.5,1.5,0,0,1,1.9-.73c2.627.876,4.671.73,6.568-.876a10.89,10.89,0,0,1,10.8-1.168,1.425,1.425,0,0,1,.73,2.189L19.04,53.161A1.5,1.5,0,0,1,18.164,53.89ZM28.819,30.244A7.616,7.616,0,0,0,22.4,31.558a9.634,9.634,0,0,1-8.028,1.606L11.6,37.98a7.9,7.9,0,0,0,2.919,10.8l2.773,1.606Z" transform="translate(0)" fill="#989eb1"/></g></svg>