<svg xmlns="http://www.w3.org/2000/svg" xmlns:xlink="http://www.w3.org/1999/xlink" width="40" height="40" viewBox="0 0 40 40"><defs><clipPath id="b"><rect width="40" height="40"/></clipPath></defs><g id="a" clip-path="url(#b)"><g transform="translate(3 0)"><g transform="translate(0 0)"><g transform="translate(0)"><path d="M18.21,21.376c0,8.382-1.909,10.943-3.073,11.688a3.488,3.488,0,0,0,1.956,6.38h7.776a5.8,5.8,0,0,0,11.362.047h7.776A3.518,3.518,0,0,0,47.5,36a3.437,3.437,0,0,0-1.537-2.887c-1.164-.792-3.073-3.353-3.073-11.688,0-7.823-4.75-10.943-8.242-12.247a5.705,5.705,0,0,0,.093-.885,4.191,4.191,0,1,0-8.382,0,5.705,5.705,0,0,0,.093.885C22.96,10.386,18.21,13.553,18.21,21.376ZM30.55,42.237a4.016,4.016,0,0,1-3.772-2.747h7.544A4.016,4.016,0,0,1,30.55,42.237ZM45.637,36a1.65,1.65,0,0,1-1.63,1.63H17.092A1.65,1.65,0,0,1,15.463,36a1.568,1.568,0,0,1,.559-1.211h29.15A1.862,1.862,0,0,1,45.637,36ZM30.55,5.916a2.306,2.306,0,0,1,2.328,2.328,1.025,1.025,0,0,1-.047.373,11.525,11.525,0,0,0-4.61,0c0-.14-.047-.233-.047-.373A2.375,2.375,0,0,1,30.55,5.916Zm-2.468,4.657h.047a8.949,8.949,0,0,1,2.468-.326,7.873,7.873,0,0,1,2.421.373h.047c3.632,1.024,8.009,3.725,8.009,10.8,0,5.4.745,9.267,2.282,11.548H17.791c1.49-2.328,2.282-6.193,2.282-11.548C20.073,14.3,24.4,11.6,28.082,10.573Z" transform="translate(-13.6 -4.1)" fill="#294a92"/><path d="M32.787,30.034h.14a.947.947,0,0,0,.931-.792c.373-2.747,3.213-4.424,3.26-4.424a.918.918,0,0,0-.931-1.583c-.14.093-3.679,2.142-4.191,5.821A.943.943,0,0,0,32.787,30.034Z" transform="translate(-23.427 -14.248)" fill="#294a92"/></g></g></g></g></svg>