<svg xmlns="http://www.w3.org/2000/svg" xmlns:xlink="http://www.w3.org/1999/xlink" width="40" height="40" viewBox="0 0 40 40"><defs><clipPath id="b"><rect width="40" height="40"/></clipPath></defs><g id="a" clip-path="url(#b)"><g transform="translate(-12.598 -12.881)"><path d="M24.408,13.2l-6.817,6.817-3.1-3.074a1.111,1.111,0,0,0-1.571,1.571L16.8,22.39a1.093,1.093,0,0,0,.792.324,1.137,1.137,0,0,0,.792-.324l7.608-7.608a1.109,1.109,0,0,0,0-1.571,1.124,1.124,0,0,0-1.583-.01Z" fill="#f29200" stroke="#f29200" stroke-width="0.1"/><path d="M67.921,22.98H49.031a1.113,1.113,0,1,0,0,2.226h18.89a1.113,1.113,0,0,0,0-2.226Z" transform="translate(-16.436 -4.7)" fill="#f29200" stroke="#f29200" stroke-width="0.1"/><path d="M67.921,48.293H49.031a1.113,1.113,0,1,0,0,2.226h18.89a1.113,1.113,0,0,0,0-2.226Z" transform="translate(-16.436 -15.606)" fill="#004e98" stroke="#004e98" stroke-width="0.1"/><path d="M67.921,73.605H49.031a1.113,1.113,0,1,0,0,2.226h18.89a1.113,1.113,0,0,0,0-2.226Z" transform="translate(-16.436 -26.593)" fill="#004e98" stroke="#004e98" stroke-width="0.1"/><path d="M24.908,41.1H17.636a1.117,1.117,0,0,0-1.113,1.113V49.5a1.117,1.117,0,0,0,1.113,1.113h7.285A1.117,1.117,0,0,0,26.034,49.5V42.218A1.126,1.126,0,0,0,24.908,41.1ZM23.8,48.39H18.75V43.333h5.056V48.39Z" transform="translate(-1.826 -12.262)" fill="#004e98" stroke="#004e98" stroke-width="0.1"/><path d="M24.908,66.793H17.636a1.117,1.117,0,0,0-1.113,1.113v7.285A1.117,1.117,0,0,0,17.636,76.3h7.285a1.117,1.117,0,0,0,1.113-1.113V67.906a1.126,1.126,0,0,0-1.126-1.113ZM23.8,74.078H18.75V69.021h5.056v5.056Z" transform="translate(-1.826 -23.423)" fill="#004e98" stroke="#004e98" stroke-width="0.1"/></g></g></svg>