<svg xmlns="http://www.w3.org/2000/svg" xmlns:xlink="http://www.w3.org/1999/xlink" width="40" height="40" viewBox="0 0 40 40"><defs><clipPath id="b"><rect width="40" height="40"/></clipPath></defs><g id="a" clip-path="url(#b)"><g transform="translate(878.758 -1748)"><g transform="translate(-874.758 1756)"><path d="M29.841,42.952A3.072,3.072,0,0,1,27,39.692V22.881a3.358,3.358,0,0,1,1.463-2.855,2.5,2.5,0,0,1,2.872.113l11.4,8.415a3.526,3.526,0,0,1,0,5.465L31.36,42.434a2.588,2.588,0,0,1-1.518.518Zm0-21.673a1.482,1.482,0,0,0-1.347,1.564V39.692a1.575,1.575,0,0,0,.7,1.366A1.188,1.188,0,0,0,30.568,41L41.948,32.6a1.691,1.691,0,0,0,0-2.62l-11.38-8.405a1.208,1.208,0,0,0-.727-.254Z" transform="translate(-27 -19.626)" fill="#fff" stroke="#fff" stroke-width="1"/></g><rect width="2.624" height="23.585" rx="1.312" transform="translate(-853.036 1756)" fill="#fff"/><rect width="2.624" height="23.585" rx="1.312" transform="translate(-846.196 1756)" fill="#fff"/></g></g></svg>