<svg xmlns="http://www.w3.org/2000/svg" xmlns:xlink="http://www.w3.org/1999/xlink" width="40" height="40" viewBox="0 0 40 40"><defs><clipPath id="b"><rect width="40" height="40"/></clipPath></defs><g id="a" clip-path="url(#b)"><g transform="translate(-143.736 -106.035)"><g transform="translate(147.878 106.035)"><g transform="translate(0 0)"><g transform="translate(6.051)"><path d="M299.3,112.439l-4.245,4.293-1.513,1.531c-.138.14-.281.277-.415.42a1.755,1.755,0,0,0-.485,1.184c-.019.675,0,1.354,0,2.03v12.166c0,.232,0,.463,0,.695,0,.012,0,.024,0,.036,0,.115-.282,1.622-.291,1.737-.005.068.266-1.257.257-1.189.022-.169-.022.107-.028.136a5.28,5.28,0,0,1-.2.7c-.07.2.065-.126-.026.065-.028.059-.055.118-.085.176-.069.135-.714,1.124-.8,1.251-.035.054.608-.363.57-.311a1.4,1.4,0,0,1,.133-.57,7.211,7.211,0,0,1-1.336,1.2c-.088.094,1-.329.906-.243-.048.043-.29.066-.338.109-.066.053-.064-.059,0-.109-.034.026-.08-.1-.115-.076-.194.138-1.771.869-1.984.974-.058.029,1.118-.477,1.058-.451.152-.066-.049.016-.067.023-.145.053-1.615.391-1.765.428-.13.033,1.062-.235.93-.213.169-.028-.052,0-.072.007q-.1.009-.2.014a4.331,4.331,0,0,1-.754-.029c.17.022-.05-.011-.07-.015q-.1-.018-.2-.041c-.129-.03,1.146.319,1.02.277-.062-.021-1.526-.43-1.588-.451-.2-.07.126.065-.065-.026-.117-.056-.234-.113-.348-.177s-1.328-.841-1.435-.915c-.053-.037,1,.635.949.6.13.1-.037-.034-.052-.046a5.341,5.341,0,0,1-.542-.55c-.138-.157.078.117-.043-.054-.037-.053-.075-.1-.111-.159q-.108-.162-.2-.332c-.062-.114-.12-.231-.172-.351.066.152-.016-.049-.023-.067-.03-.082.307.992.282.908-.032-.106-.424-1.371-.448-1.479-.014-.065-.025-.132-.038-.2-.044-.214.009.148-.011-.071-.015-.162-.025-.323-.026-.485,0-.042,0-.084,0-.126V113.608a7.806,7.806,0,0,0-.9-3.809,7.29,7.29,0,0,0-11.533-1.643,7.389,7.389,0,0,0-1.756,2.835,8.019,8.019,0,0,0-.377,2.614v1.733a.739.739,0,1,0,1.477,0v-1.8c0-.329.01-.656.043-.984.022-.222-.029.147.01-.072.008-.044.014-.089.022-.133q.035-.2.082-.392a6.484,6.484,0,0,1,.257-.818c.007-.018.091-.217.025-.066.017-.04-.382.777-.364.738.054-.118.529-1.092.591-1.207a6.53,6.53,0,0,1,.443-.715q.056-.079.115-.156c-.1.13.032-.039.044-.053.068-.083-.674.7-.6.623.188-.207,1.2-1.269,1.413-1.45.049-.042.1-.082.149-.123.163-.136-.118.081.055-.042.088-.063.174-.126.264-.186a6.54,6.54,0,0,1,.729-.422q.087-.043.176-.084c.017-.008.216-.093.063-.03.1-.042-1.072.359-.969.322.271-.1,1.823-.613,2.1-.672.132-.028.506-.088.639-.108-.17.025.773-.859.793-.861.057-.006-.849.88-.793.876.264-.021,2.3-.016,2.25.023.137.006-.83-.014-.694,0,.019,0,.17-.287,0-.312.067.01-1.035.137-.969.148.262.047,1.408.306,1.663.384.126.039,1.425.476,1.548.522.061.023-1.052-.347-.992-.322-.153-.063.046.022.063.03a6.519,6.519,0,0,1,.688.367q.166.1.325.212c.053.037.1.075.157.113.172.124-.108-.093.055.042.2.165,1.367,1.389,1.548,1.574.09.092-.8-.868-.713-.771q.063.073.125.148c.012.014.143.183.044.053a6.629,6.629,0,0,1,.431.645c.132.225.645,1.289.75,1.527-.067-.152-.378-.784-.371-.766q.036.092.068.185.066.187.12.377a7.689,7.689,0,0,1,.172.782c.039.218-.012-.15.01.072.007.068.014.135.02.2q.017.205.021.412c0,.07,0,.14,0,.21q0,2.677,0,5.355v15.634a5.674,5.674,0,0,0,.839,3.243,5.142,5.142,0,0,0,9.444-2.84c0-.685,0-1.371,0-2.057V120.558c0-.226,0-.452,0-.678,0-.01,0-.02,0-.03,0-.112.01-.077.07-.14.157-.166.322-.326.483-.488l4.948-5,.724-.732a.739.739,0,1,0-1.045-1.045Z" transform="translate(-270.75 -106.035)" fill="#f29200" stroke="#f29200" stroke-width="1"/></g><g transform="translate(0 11.39)"><g transform="translate(0 0)"><path d="M159.942,344.073v19.856c0,.054,0,.109,0,.163,0,.009,0,.018,0,.026s-.006.2,0,.068.008,0,0,0l-.018.062q.056-.114,0,0a1.087,1.087,0,0,1-.066.108q.069-.087.016-.028c-.022.034-.136.111-.016.028a.933.933,0,0,1-.164.094c.163-.069,0-.006,0-.011-.021,0-.387.316-.408.32.088-.011.175-.005.086,0h0c-.1,0,.968-.306.867-.306-.43,0-1.817-.008-2.247-.008h-7.63c-.221,0-.444-.01-.665,0-.055,0-.129-.016-.006.008,0,0-.2-.054-.1-.018s-.083-.045-.083-.045c-.164-.081.082.088-.048-.04-.095-.093.3.21.315.237-.036-.051-.39-.339-.414-.4.077.182,0-.208.007,0,0-.046,0-.091,0-.137,0-.539,0-1.078,0-1.617V344.6c0-.164,0-.328,0-.491,0-.2.008-.408.027-.612,0-.048.01-.095.015-.142-.018.159-.045.481-.043.468.019-.116.1-.784.125-.9a5.964,5.964,0,0,1,.242-.8c0,.01.08-.2.04-.1a1.079,1.079,0,0,0-.04.1c.053-.114.2-.431.255-.541a6.037,6.037,0,0,1,.416-.663.587.587,0,0,0-.183.167c.028-.035.289-.305.317-.34q.13-.157.27-.3a6.079,6.079,0,0,1,.546-.508c.01-.008-.2.1-.173.132.036-.027.31-.238.347-.264q.166-.119.34-.226a7.087,7.087,0,0,1,.663-.354c.2-.1-.133.048.077-.034.064-.025.129-.05.194-.074q.195-.07.394-.127a5.312,5.312,0,0,1,.834-.172,5.51,5.51,0,0,1,1.88.116,6.378,6.378,0,0,1,.8.257c.208.082-.124-.064.077.034l.155.073q.2.1.392.21a6.435,6.435,0,0,1,.567.377,2.636,2.636,0,0,1-.224-.186c.052.043.392.325.443.37q.153.134.3.279.119.12.232.247.068.076.133.154c-.007-.008.132.165.069.084s-.2-.23-.2-.239c.04.055.346.438.384.494q.114.17.217.347.086.148.163.3.046.092.09.185c.005.012-.117-.342-.175-.486.087.214.373,1,.435,1.218a5.741,5.741,0,0,1,.159.757c-.019-.138,0,.018,0,.052.006.06-.008-.48,0-.42.01.145.033.889.034,1.034a.739.739,0,1,0,1.477,0A6.77,6.77,0,0,0,147.88,344c-.005.416,0,.833,0,1.25v18.218c0,.194,0,.388,0,.582a1.845,1.845,0,0,0,1.221,1.773,2.943,2.943,0,0,0,1.01.1h9.076a2.743,2.743,0,0,0,1.187-.172,1.827,1.827,0,0,0,1.045-1.7c.008-1.7,0-3.4,0-5.1V344.073a.739.739,0,1,0-1.477,0Z" transform="translate(-147.878 -337.312)" fill="#3b3b3b" stroke="#3b3b3b" stroke-width="0.5"/></g></g><g transform="translate(3.647 8.548)"><path d="M226.7,281.019v2.553l.935-.712a8.042,8.042,0,0,0-5.161,0l.935.712v-2.19c0-.089,0-.179,0-.269,0-.144,0-.03-.013-.032l.016-.064q-.052.113.01,0a.757.757,0,0,1-.085.085c.15-.133-.006.018,0-.01s.161-.007,0,0h3.287c.047,0,.1,0,.143,0,.026,0-.075.05-.06-.013l.064.016q-.113-.052,0,.01a.753.753,0,0,1-.085-.085q.062.111.01,0,.031.127,0,0a.739.739,0,1,0,1.477,0,1.436,1.436,0,0,0-1.407-1.406c-.135,0-.27,0-.4,0h-2a3.845,3.845,0,0,0-1.656.153,1.435,1.435,0,0,0-.774,1.3c0,.236,0,.472,0,.708v1.8a.745.745,0,0,0,.935.712,6.636,6.636,0,0,1,4.375,0,.745.745,0,0,0,.935-.712v-2.553a.739.739,0,1,0-1.477,0Z" transform="translate(-221.93 -279.598)" fill="#3b3b3b" stroke="#3b3b3b" stroke-width="0.5"/></g><g transform="translate(4.538 19.819)"><path d="M241.789,524.139h6.5a.749.749,0,0,0,.739-.739V509.211a.749.749,0,0,0-.739-.739h-4.406c-.668,0-1.336,0-2,0a1.812,1.812,0,0,0-1.856,1.844c-.008,1.273,0,2.547,0,3.821v7.717a2.224,2.224,0,0,0,.541,1.789,1.843,1.843,0,0,0,1.228.5.745.745,0,0,0,.739-.739.754.754,0,0,0-.739-.739c-.039,0-.132-.024,0,.007-.032-.008-.064-.015-.095-.024-.108-.032.1.026,0,0a.364.364,0,0,1-.083-.047c.1.059.029.03,0,0s-.06-.058-.087-.092c.1.126-.042-.167,0-.007a.436.436,0,0,1-.026-.094c-.005-.113-.011.115,0,0a.245.245,0,0,0,0-.036c0-.009,0-.018,0-.026,0-.122,0-.244,0-.366V510.53c0-.094,0-.189,0-.283,0-.172,0,.042,0-.041a.377.377,0,0,1,.026-.094c-.052.178-.006-.013,0,0,0-.007.1-.14-.008-.007.026-.033.058-.061.087-.092.092-.1.029-.018,0,0,.037-.021.072-.044.111-.062-.114.053.019.005.069-.007-.13.032-.024.006.021.007.54.015,1.083,0,1.623,0h4.856l-.739-.739V523.4l.739-.739h-6.5a.739.739,0,0,0,0,1.478Z" transform="translate(-240.017 -508.472)" fill="#3b3b3b"/></g><g transform="translate(27.943 9.414)"><g transform="translate(0 0)"><path d="M716.012,306.873a4.916,4.916,0,0,0,2.578-.382A2.918,2.918,0,0,0,720,303.9v-5.974a.739.739,0,1,0-1.477,0v5.668c0,.145,0,.29,0,.436,0,.039,0,.077,0,.116s0,.068-.007.1c0-.012.02-.115,0-.029s-.031.152-.054.226c-.012.042-.028.083-.042.125,0-.011.048-.1.012-.026q-.041.088-.089.173c-.032.056-.068.109-.1.163-.047.069.01-.013.018-.022-.028.033-.056.065-.085.1a2.327,2.327,0,0,1-.187.176c.1-.086-.047.03-.086.054-.065.04-.131.074-.2.109-.009,0-.108.044-.031.014s-.08.024-.1.029c-.075.022-.15.039-.226.054s.017,0,.029,0c-.045,0-.091.007-.136.009s-.113,0-.169,0h-1.057a.739.739,0,1,0,0,1.478Z" transform="translate(-715.272 -297.184)" fill="#f29200"/></g></g></g></g></g></g></svg>