<svg xmlns="http://www.w3.org/2000/svg" xmlns:xlink="http://www.w3.org/1999/xlink" width="40" height="40" viewBox="0 0 40 40"><defs><clipPath id="b"><rect width="40" height="40"/></clipPath></defs><g id="a" clip-path="url(#b)"><g transform="translate(-3.941 -91.9)"><g transform="translate(4.222 98.9)"><path d="M42.05,103.8c-4.283-3.252-8.542-4.9-12.656-4.9s-8.373,1.65-12.656,4.9a39.518,39.518,0,0,0-6.684,6.528,1.754,1.754,0,0,0,0,2.176,40.172,40.172,0,0,0,6.684,6.528c4.283,3.252,8.542,4.9,12.656,4.9s8.373-1.65,12.656-4.9a39.519,39.519,0,0,0,6.684-6.528,1.754,1.754,0,0,0,0-2.176A39.518,39.518,0,0,0,42.05,103.8Zm-1.161,13.717c-3.947,2.989-7.813,4.511-11.5,4.511s-7.549-1.514-11.5-4.511a37.661,37.661,0,0,1-6.268-6.1,37.985,37.985,0,0,1,6.268-6.1c3.947-2.989,7.813-4.511,11.5-4.511s7.549,1.514,11.5,4.511a37.66,37.66,0,0,1,6.268,6.1A38.322,38.322,0,0,1,40.889,117.518Z" transform="translate(-9.675 -98.9)" fill="#004e98" stroke="#294a92" stroke-width="0.5"/><path d="M166.876,159a7.645,7.645,0,1,0,7.876,7.641A7.769,7.769,0,0,0,166.876,159Zm0,13.392a5.753,5.753,0,1,1,5.927-5.751A5.848,5.848,0,0,1,166.876,172.392Z" transform="translate(-147.157 -154.12)" fill="#004e98" stroke="#294a92" stroke-width="0.5"/></g></g></g></svg>