<svg xmlns="http://www.w3.org/2000/svg" width="89.576" height="90.814" viewBox="0 0 89.576 90.814">
  <g id="Group_4005" data-name="Group 4005" transform="translate(-1071 -273)">
    <path id="Exclusion_3" data-name="Exclusion 3" d="M5.827,26.779c-.162,0-.329,0-.5-.009A24.669,24.669,0,0,1,.761,26.2c-.6-.138-.8-.368-.754-.848a.878.878,0,0,1,.931-.806c.035,0,.07,0,.106,0,.4.047.806.119,1.2.188s.8.142,1.2.189a15.964,15.964,0,0,0,2.121.153,10.693,10.693,0,0,0,2.121-.2A7,7,0,0,0,11.6,22.623c.328-.329.284-.516.094-.9A48.9,48.9,0,0,1,7.359,10.37,1.635,1.635,0,0,1,7.264,9.9a1.044,1.044,0,0,1,.162-.845.882.882,0,0,1,.7-.243c.041,0,.085,0,.129,0,2.063.135,4.267.279,6.55.424L17.4,9.38l2.592.141a1.338,1.338,0,0,0,.146.009c.338,0,.507-.169.7-.48q.248-.467.5-.929c.621-1.161,1.262-2.361,1.861-3.6l.118-.224,0-.007A13.756,13.756,0,0,1,24.8,1.887,4.568,4.568,0,0,1,28.36,0a4.86,4.86,0,0,1,2.986,1.133,10.184,10.184,0,0,1,2.262,2.686c.849,1.388,1.584,2.835,2.3,4.234l0,0c.158.31.321.631.483.946a1.3,1.3,0,0,0,1.367.8c1.415-.032,2.847-.053,4.231-.074,2.762-.041,5.619-.084,8.446-.209.352-.016.7-.038,1.045-.059.656-.041,1.334-.082,2.018-.082a4.461,4.461,0,0,1,3.2,1.272,14.8,14.8,0,0,1,2.027,2.5c.238.357.327.49.527.49a2.2,2.2,0,0,0,.51-.113c2.895-.846,5.885-1.8,9.143-2.922l.006,0a13.659,13.659,0,0,1,2.728-.658c.169-.015.336-.023.5-.023a4.069,4.069,0,0,1,2.33.683A2.606,2.606,0,0,1,75.5,12.019c.1.285.214.4.411.4a1.129,1.129,0,0,0,.343-.072c1.762-.588,3.679-1.142,6.032-1.744,1.652-.423,3.455-.809,5.514-1.178a2.46,2.46,0,0,1,.328-.049c.108-.011.22-.023.332-.046.047,0,.093-.005.138-.005a.83.83,0,0,1,.946.806c.047.517-.191.754-.848.848-2.116.31-4.159.792-5.7,1.178-2.392.611-4.678,1.319-6.6,1.932a.733.733,0,0,0-.612.8,31.507,31.507,0,0,1-1.178,8.671,6.006,6.006,0,0,1-.66,1.744,2.077,2.077,0,0,1-1.882,1.2,3.04,3.04,0,0,1-.616-.068,4.509,4.509,0,0,1-2.215-1.131A14.548,14.548,0,0,1,65.513,20.6a5.158,5.158,0,0,1-.613-2.639,2.436,2.436,0,0,1,1.037-1.932,5.638,5.638,0,0,1,2.026-.942c1.1-.3,2.184-.675,3.232-1.035.746-.256,1.517-.521,2.282-.756.316-.1.469-.193.511-.318s-.023-.3-.228-.577a2,2,0,0,0-1.7-.824,3.191,3.191,0,0,0-.373.023,7.653,7.653,0,0,0-1.791.424c-3.658,1.256-6.683,2.229-9.519,3.063,0,.234-.091.282-.283.33.2.373.4.707.591,1.029.174.292.338.566.494.855a32.391,32.391,0,0,1,2.733,6.456,3.25,3.25,0,0,1,.236,1.178,1.478,1.478,0,0,1-1.225,1.649h0a5.962,5.962,0,0,1-1.176.153c-.1,0-.19,0-.282-.013-1.7-.126-3.4-.126-5.055-.126-.828,0-1.684,0-2.533-.016h-.034c-2.143-.047-4.36-.095-6.516-.329a8.068,8.068,0,0,1-3.252-.972,6.575,6.575,0,0,1-2.4-2.421,17.982,17.982,0,0,1-.943-1.6c-.261-.456-.339-.594-.591-.594a2.857,2.857,0,0,0-.492.075c-2.321.539-4.69,1.1-6.981,1.64-2.32.548-4.717,1.114-7.063,1.659-2.1.514-4.24.989-6.306,1.449l-.056.012a9.554,9.554,0,0,1-1.9.209,6.928,6.928,0,0,1-.976-.068,5.2,5.2,0,0,1-3.11-1.555l-.283-.282a.15.15,0,0,1-.094-.047l-.006.006c-.23.23-.468.468-.748.7A8.109,8.109,0,0,1,9.2,26.248,10.186,10.186,0,0,1,5.827,26.779Zm52.42-10.773a2.2,2.2,0,0,0-.51.113c-1.641.445-3.32.9-4.945,1.336h0c-1.639.442-3.333.9-5,1.35-1.834.47-3.737.946-5.655,1.414.437.777.8,1.42,1.178,2.027a4.614,4.614,0,0,0,3.393,2.262,25.079,25.079,0,0,0,3.77.33c.76.019,1.53.041,2.274.062h.007c2.392.067,4.865.136,7.287.136.512,0,1.019,0,1.507-.009.524,0,.791-.025.9-.166s.053-.379-.095-.871c-.047-.047-.047-.047-.047-.094a39.265,39.265,0,0,0-3.534-7.4C58.536,16.14,58.447,16.006,58.247,16.006Zm15.729-.872a.832.832,0,0,0-.175.023.672.672,0,0,1-.135.019c-.731.231-1.475.49-2.2.741-1.05.366-2.136.744-3.224,1.05-.844.265-1.3.571-1.491.99a2.22,2.22,0,0,0,.266,1.79A12.532,12.532,0,0,0,70.6,24.319a2.927,2.927,0,0,0,.8.517,1.491,1.491,0,0,0,.576.142.909.909,0,0,0,.792-.565,8.088,8.088,0,0,0,.33-.99c.063-.288.129-.581.193-.864a37.588,37.588,0,0,0,.7-3.707,18.966,18.966,0,0,0,.189-3.676A.553.553,0,0,0,73.976,15.135ZM21.869,11.392a.721.721,0,0,0-.656.392A80.3,80.3,0,0,1,14.286,22.1a.488.488,0,0,0,.047.754,3.444,3.444,0,0,0,2.215,1.178,6.075,6.075,0,0,0,.776.049,11.143,11.143,0,0,0,2.428-.331l16.4-3.817.029-.007c1.1-.276,2.242-.561,3.411-.841-.024-.071-.048-.131-.071-.189s-.047-.117-.07-.188c-.668-1.395-1.4-2.775-2.111-4.11v0c-.44-.828-.895-1.684-1.328-2.532-.136-.317-.353-.377-.707-.377-1.888,0-3.7-.044-5.616-.091l-.133,0c-2.457-.046-5-.094-7.493-.188A1.349,1.349,0,0,0,21.869,11.392ZM9.291,10.7a22.045,22.045,0,0,0,1.561,5.343,20.623,20.623,0,0,0,2.3,4.742,94.28,94.28,0,0,0,6.362-9.473C16.067,11.079,12.711,10.89,9.291,10.7Zm28.559.99h0a.582.582,0,0,0,.04.462,1.058,1.058,0,0,1,.054.151c.518.964,1.032,1.945,1.529,2.893l0,.005c.5.95,1.013,1.932,1.532,2.9.219.376.293.5.513.5a2.616,2.616,0,0,0,.474-.078h0c5.371-1.33,10.2-2.594,14.751-3.864a4.4,4.4,0,0,0,.612-.188,14.836,14.836,0,0,0-1.838-2.262,2.614,2.614,0,0,0-1.7-.8,10.518,10.518,0,0,0-1.225-.048c-3.523.172-7.192.277-11.546.33ZM28.424,1.911a2.833,2.833,0,0,0-1.7.636,5.023,5.023,0,0,0-1.461,1.7c-.64,1.067-1.21,2.21-1.761,3.316-.3.6-.609,1.222-.925,1.821-.094.141-.14.236,0,.377,4.49.209,8.957.235,12.347.235-.439-.76-.827-1.532-1.2-2.278a21.614,21.614,0,0,0-2.239-3.8,6.28,6.28,0,0,0-1.367-1.367A2.833,2.833,0,0,0,28.424,1.911Z" transform="translate(1071.023 273)" fill="#ee7202"/>
    <path id="Exclusion_2" data-name="Exclusion 2" d="M11.14,34.49a12.112,12.112,0,0,1-3.313-.418A9.928,9.928,0,0,1,.947,27.381a15.973,15.973,0,0,1,.236-11.452,10.738,10.738,0,0,1,9.284-7.022,12.987,12.987,0,0,1,1.509-.091,10.887,10.887,0,0,1,3.2.468,7.336,7.336,0,0,1,3.911,2.828,1.342,1.342,0,0,1,.111.131,1.938,1.938,0,0,0,.171.2.656.656,0,0,0,.106-.53c-.006-.058-.012-.118-.012-.177V.33c0-.234.1-.33.33-.33h3.3a.3.3,0,0,1,.33.33V33.319a.53.53,0,0,1-.086.419.411.411,0,0,1-.322.11,1.273,1.273,0,0,1-.158-.011H20.127c-.66,0-.66,0-.66-.66V30.538a7.094,7.094,0,0,1-3.04,2.91,10.88,10.88,0,0,1-4.029,1C11.946,34.477,11.534,34.49,11.14,34.49Zm.874-22.69a6.922,6.922,0,0,0-1.029.076,6.867,6.867,0,0,0-5.467,4.147,13.537,13.537,0,0,0-1.037,7.21A11.546,11.546,0,0,0,5.754,27.71a6.5,6.5,0,0,0,5.993,3.722,9.62,9.62,0,0,0,1.595-.14,6.721,6.721,0,0,0,5.467-4.9,14,14,0,0,0,.66-5.043c0-.127,0-.255.006-.39a6.706,6.706,0,0,0-.053-1.26,10.1,10.1,0,0,0-.942-3.911A7.126,7.126,0,0,0,12.014,11.8Z" transform="translate(1121.876 306.367)" fill="#ee7202"/>
    <path id="Exclusion_1" data-name="Exclusion 1" d="M3.545,34.141H3.39l-.233,0H.565c-.565,0-.565,0-.565-.612V1.338C0,.631,0,.631.707.631H3.3c.707,0,.707,0,.707.707V3.365a1.906,1.906,0,0,0,.048.518h.141A6.554,6.554,0,0,1,6.462,1.415,8.57,8.57,0,0,1,9.614.255,15.381,15.381,0,0,1,12.327,0a11.159,11.159,0,0,1,3.507.537,9.953,9.953,0,0,1,4.153,2.445,10.7,10.7,0,0,1,2.492,4.106A16.223,16.223,0,0,1,22.2,18.917a10.747,10.747,0,0,1-3.3,4.471,11.49,11.49,0,0,1-5.137,2.173,11.793,11.793,0,0,1-2.246.217,11.93,11.93,0,0,1-2.891-.358A7.281,7.281,0,0,1,4.383,22.5a1.033,1.033,0,0,0-.188-.235.025.025,0,0,0-.005-.018c-.006-.006-.017-.006-.036-.006a.425.425,0,0,1-.147-.024V33.338q0,.067,0,.126v0c0,.345,0,.518-.081.6C3.862,34.13,3.752,34.141,3.545,34.141ZM11.7,3.074h0a8.341,8.341,0,0,0-2.6.432,6.962,6.962,0,0,0-4.524,4.9,12.615,12.615,0,0,0-.566,4.477c0,.2,0,.4,0,.585A11.75,11.75,0,0,0,4.147,15.9a12.2,12.2,0,0,0,.424,1.791,7.09,7.09,0,0,0,6.809,5.014,8.175,8.175,0,0,0,2-.254,6.987,6.987,0,0,0,4.948-4.807,15.006,15.006,0,0,0,.377-8.059,13.806,13.806,0,0,0-.8-2.357A6.675,6.675,0,0,0,11.7,3.074Z" transform="translate(1071.03 315.114)" fill="#ee7202"/>
    <path id="Path_4" data-name="Path 4" d="M168.755,190.488h3.77c.283,0,.33.188.424.377.141.424.236.848.377,1.225a4.939,4.939,0,0,0,4.289,3.11,6.939,6.939,0,0,0,3.252-.33,3.243,3.243,0,0,0,2.356-2.592,3.335,3.335,0,0,0-1.508-3.487,12.874,12.874,0,0,0-3.393-1.508,30.835,30.835,0,0,1-3.534-1.131,12.694,12.694,0,0,1-2.828-1.555,5.973,5.973,0,0,1-2.309-5.8,6.4,6.4,0,0,1,4.666-5.608,11.2,11.2,0,0,1,7.54.047c3.063,1.084,4.618,3.44,5.137,6.6.047.283-.094.377-.33.377H183.27c-.33,0-.424-.141-.471-.424a3,3,0,0,0-.283-.848,4.881,4.881,0,0,0-5.42-3.252c-.283.047-.613.094-.9.141a3.108,3.108,0,0,0-2.451,2.686,3.377,3.377,0,0,0,1.414,3.534,11.623,11.623,0,0,0,3.252,1.367,32.346,32.346,0,0,1,3.629,1.131,13.828,13.828,0,0,1,2.828,1.555,6.407,6.407,0,0,1,2.451,5.938,5.975,5.975,0,0,1-4.147,5.372,12.871,12.871,0,0,1-9,.236,7.8,7.8,0,0,1-5.372-6.409A1.276,1.276,0,0,1,168.755,190.488Z" transform="translate(930.033 142.553)" fill="#ee7202"/>
    <path id="Exclusion_4" data-name="Exclusion 4" d="M.784,7.514H.313c-.2,0-.283-.1-.283-.33V.823A1.44,1.44,0,0,0,.015.65c-.025-.2-.051-.4.2-.44C.276.193.335.173.4.151A1.553,1.553,0,0,1,.881.04a.467.467,0,0,1,.375.17c.082.1.15.148.221.148A.425.425,0,0,0,1.665.289L1.727.257A3.658,3.658,0,0,1,2.987,0,1.825,1.825,0,0,1,4.35.54a2.929,2.929,0,0,1,.676,2.12,3,3,0,0,1-.773,2.062A2.643,2.643,0,0,1,2.3,5.484a3.974,3.974,0,0,1-.573-.043A1.818,1.818,0,0,1,1.3,5.393V7a.49.49,0,0,1-.076.394A.563.563,0,0,1,.784,7.514Zm1.745-6.48a1.729,1.729,0,0,0-.473.071c-.65.186-.754.268-.754.99V3.7c0,.638.176.887.629.887a1.971,1.971,0,0,0,.361-.039,1.344,1.344,0,0,0,1.084-.707A2.5,2.5,0,0,0,3.47,1.671.925.925,0,0,0,2.529,1.034Z" transform="translate(1071 356.3)" fill="#ee7303"/>
    <path id="Exclusion_6" data-name="Exclusion 6" d="M2.532,5.589A2.39,2.39,0,0,1,.688,4.826,3.083,3.083,0,0,1,0,2.73,2.84,2.84,0,0,1,.812.76,2.6,2.6,0,0,1,2.657,0a2.924,2.924,0,0,1,1.49.421A2.288,2.288,0,0,1,5.184,1.788a3.987,3.987,0,0,1,.047,1.979,2.219,2.219,0,0,1-1.744,1.7A3.955,3.955,0,0,1,2.532,5.589Zm.107-4.508a1.106,1.106,0,0,0-1.225.848,2.752,2.752,0,0,0,.048,1.838A1.171,1.171,0,0,0,2.6,4.573c.042,0,.085,0,.129-.005a1.117,1.117,0,0,0,1.131-.942A2.054,2.054,0,0,0,3.97,3.1c.01-.089.021-.181.036-.273-.016-.095-.027-.191-.037-.284a2.7,2.7,0,0,0-.1-.564A1.172,1.172,0,0,0,2.639,1.081Z" transform="translate(1109.014 356.23)" fill="#ee7303"/>
    <path id="Exclusion_7" data-name="Exclusion 7" d="M2.7,5.584a3.081,3.081,0,0,1-1.242-.272A2.365,2.365,0,0,1,0,2.956,3.08,3.08,0,0,1,.778.8,2.544,2.544,0,0,1,2.657,0,3.178,3.178,0,0,1,3.911.269,2.65,2.65,0,0,1,5.325,2.861a2.866,2.866,0,0,1-.79,1.969A2.553,2.553,0,0,1,2.7,5.584Zm-.18-4.517a1.162,1.162,0,0,0-1.2,1.041,3.036,3.036,0,0,0,.094,1.6,1.211,1.211,0,0,0,1.19.853c.042,0,.086,0,.129-.005a1.165,1.165,0,0,0,1.131-.99,2.219,2.219,0,0,0,.094-.754,1.506,1.506,0,0,0-.094-.66A1.183,1.183,0,0,0,2.639,1.071C2.6,1.068,2.561,1.067,2.523,1.067Z" transform="translate(1135.971 356.241)" fill="#ee7303"/>
    <path id="Exclusion_5" data-name="Exclusion 5" d="M2.622,5.53A3.415,3.415,0,0,1,1.4,5.3,1.828,1.828,0,0,1,.273,4.213,3.612,3.612,0,0,1,.367,1.244,2.583,2.583,0,0,1,2.621,0,2.2,2.2,0,0,1,4,.443,2.466,2.466,0,0,1,4.75,2.8c-.047.188-.238.188-.377.188H1.639a.294.294,0,0,0-.24.091.336.336,0,0,0-.043.287A1.244,1.244,0,0,0,2.393,4.449a2.244,2.244,0,0,0,.4.036,2.188,2.188,0,0,0,1.061-.272.5.5,0,0,1,.235-.075c.146,0,.221.116.3.238a1,1,0,0,0,.125.167.339.339,0,0,1,.071.262c-.029.127-.161.216-.307.3A3.652,3.652,0,0,1,2.622,5.53ZM2.582.915c-.66,0-.99.33-1.178,1.178.327.022.7.047,1.06.047a5.371,5.371,0,0,0,1.06-.094C3.428,1.221,3.172.915,2.582.915Z" transform="translate(1078.439 356.302)" fill="#ee7203"/>
    <path id="Path_9" data-name="Path 9" d="M207.692,262.733c0-.66.047-1.367,0-2.026,0-.424.141-.613.518-.613.283,0,.66-.283.8.236.047.188.236.047.33,0a3.97,3.97,0,0,1,1.649-.33,1.283,1.283,0,0,1,1.367,1.225c.047,1.272.047,2.545.047,3.817,0,.236-.141.33-.377.33h-.471c-.377.047-.471-.141-.471-.471v-2.639c0-.424.094-.9-.424-1.131a1.832,1.832,0,0,0-1.555.236c-.188.094-.141.33-.141.518v2.969c0,.188.094.424-.141.471a1.942,1.942,0,0,1-1.037-.047c-.141-.094-.094-.283-.094-.471Z" transform="translate(909.428 96.322)" fill="#ee7304"/>
    <path id="Path_10" data-name="Path 10" d="M144.778,260.6a2.779,2.779,0,0,0-.189.377c-.141.377-.377.471-.754.283a2.148,2.148,0,0,0-1.084-.236,1.676,1.676,0,0,0-.471.094.4.4,0,0,0,0,.754,4.908,4.908,0,0,0,.754.283,3.9,3.9,0,0,1,1.037.377,1.492,1.492,0,0,1,.9,1.508,1.547,1.547,0,0,1-1.178,1.414,3.906,3.906,0,0,1-3.3-.518c-.047-.189.094-.33.188-.471.141-.377.377-.424.754-.189a2.247,2.247,0,0,0,1.461.33c.33-.047.66-.094.754-.471.094-.424-.283-.566-.566-.66a5.7,5.7,0,0,0-.848-.236c-.141-.047-.33-.094-.471-.141-.8-.33-1.178-.8-1.131-1.508a1.546,1.546,0,0,1,1.272-1.367A3.421,3.421,0,0,1,144.778,260.6Z" transform="translate(944.961 96.283)" fill="#ee7303"/>
    <path id="Path_11" data-name="Path 11" d="M224.715,257.634c.141.377-.141.848.141,1.131.283.33.754.094,1.178.141.188,0,.377.047.33.33s.094.66-.377.66h-.707c-.33,0-.471.094-.471.424v2.074c.047.566.236.707.754.707.707,0,.707,0,.943.707-.236.283-.613.283-.943.377a1.559,1.559,0,0,1-2.026-1.555,18.117,18.117,0,0,1,0-2.262c0-.33-.094-.518-.471-.471-.424.047-.566-.141-.566-.518s.141-.471.471-.471c.283.047.518,0,.518-.424.047-.8.047-.8.9-.9A.436.436,0,0,1,224.715,257.634Z" transform="translate(901.595 97.604)" fill="#ee7303"/>
    <path id="Path_12" data-name="Path 12" d="M157.964,259.014v.236c-.094.66-.094.66-.8.66h-.471a.25.25,0,0,0-.283.283v2.356c.047.518.283.66.9.566.236-.047.424-.189.566.188.236.518.188.66-.377.8a3.264,3.264,0,0,1-.943.141,1.478,1.478,0,0,1-1.461-1.508c-.047-.754,0-1.508,0-2.262,0-.377-.047-.66-.518-.566-.424.047-.471-.141-.471-.518,0-.424.141-.518.518-.471.33.047.471-.094.471-.471.047-.8.094-.8.9-.848.283,0,.377.047.424.33,0,.33-.141.707.141.9.236.141.613.047.943.047C157.634,258.92,157.823,258.872,157.964,259.014Z" transform="translate(937.76 97.591)" fill="#ee7303"/>
    <path id="Path_13" data-name="Path 13" d="M176.4,262.981a2.706,2.706,0,0,1,3.864-2.733c.188.094.471.141.377.518-.189.471-.33.565-.707.471a2.878,2.878,0,0,0-.613-.141c-.9-.141-1.508.518-1.555,1.6-.047,1.178.377,1.791,1.367,1.791a1.742,1.742,0,0,0,.99-.283c.424-.236.471.189.613.377.189.236.047.377-.141.518a3.254,3.254,0,0,1-2.875.188,2.1,2.1,0,0,1-1.225-1.7A1.74,1.74,0,0,1,176.4,262.981Z" transform="translate(925.969 96.31)" fill="#ee7303"/>
    <path id="Path_14" data-name="Path 14" d="M266.114,258.066v3.487c0,.189.094.518-.141.613a1.32,1.32,0,0,1-1.037,0c-.189-.047-.141-.33-.141-.518v-7.116c0-.141-.047-.377.141-.377.33-.047.707-.236,1.037-.047.189.094.094.33.094.518C266.114,255.757,266.114,256.935,266.114,258.066Z" transform="translate(879.235 99.48)" fill="#ee7406"/>
    <path id="Path_15" data-name="Path 15" d="M236.3,262.816c0-.707.047-1.414,0-2.074,0-.424.189-.613.566-.613.283,0,.707-.236.848.33.047.189.236,0,.33-.047a1.815,1.815,0,0,1,1.367-.33c.236,0,.424.094.33.377a1.171,1.171,0,0,0-.047.377c0,.377-.141.613-.566.471a1.006,1.006,0,0,0-.377,0,1.027,1.027,0,0,0-1.037,1.084v2.4c0,.565-.047.565-.707.565-.566,0-.613,0-.613-.565A13.919,13.919,0,0,1,236.3,262.816Z" transform="translate(894.298 96.286)" fill="#ee7507"/>
  </g>
</svg>
