<svg xmlns="http://www.w3.org/2000/svg" xmlns:xlink="http://www.w3.org/1999/xlink" width="40" height="40" viewBox="0 0 40 40"><defs><clipPath id="b"><rect width="40" height="40"/></clipPath></defs><g id="a" clip-path="url(#b)"><g transform="translate(1)"><path d="M88.827,37.454l-7.672-8.075s-.01,0-.01-.009a.593.593,0,0,0-.422-.17.284.284,0,0,0-.086.009H65.594a4.273,4.273,0,0,0-4.414,4.115v1.286H54.414A4.273,4.273,0,0,0,50,38.724v26.36A4.273,4.273,0,0,0,54.414,69.2H73.942a4.273,4.273,0,0,0,4.414-4.115V62.857H85.6c2.437,0,3.4-1.843,3.4-4.115v-20.9A.517.517,0,0,0,88.827,37.454ZM81.3,31.034l5.752,6.286h-3.5a3.155,3.155,0,0,1-3.263-3.041ZM77.2,65.075a3.155,3.155,0,0,1-3.263,3.041H54.414a3.155,3.155,0,0,1-3.263-3.041V38.715a3.155,3.155,0,0,1,3.263-3.041H67.494V40.62a4.273,4.273,0,0,0,4.414,4.115h5.307v20.34ZM68.645,40.62V36.434l7.773,7.227h-4.51A3.167,3.167,0,0,1,68.645,40.62Zm19.2,18.113c0,1.682-.448,3.041-2.252,3.041h-7.24V44.18a.485.485,0,0,0-.173-.376l-9.692-9.025s-.01,0-.01-.009a.593.593,0,0,0-.422-.17.284.284,0,0,0-.086.009H62.321V33.315a3.155,3.155,0,0,1,3.263-3.041H80.148l-1.01,4a4.273,4.273,0,0,0,4.414,4.115h4.3Z" transform="translate(-50.5 -29.2)" fill="#004e98" stroke="#004e98" stroke-width="1"/><path d="M134.493,385H122.322a.522.522,0,1,0,0,1.043h12.172a.522.522,0,1,0,0-1.043Z" transform="translate(-114.469 -353.913)" fill="#f29200" stroke="#f29200" stroke-width="1"/><path d="M134.493,275.1H122.322a.522.522,0,0,0,0,1.043h12.172a.522.522,0,1,0,0-1.043Z" transform="translate(-114.469 -253.851)" fill="#f29200" stroke="#f29200" stroke-width="1"/><path d="M134.493,330H122.322a.522.522,0,0,0,0,1.043h12.172a.522.522,0,1,0,0-1.043Z" transform="translate(-114.469 -303.837)" fill="#f29200" stroke="#f29200" stroke-width="1"/></g></g></svg>