<svg xmlns="http://www.w3.org/2000/svg" xmlns:xlink="http://www.w3.org/1999/xlink" width="40" height="40" viewBox="0 0 40 40"><defs><clipPath id="b"><rect width="40" height="40"/></clipPath></defs><g id="a" clip-path="url(#b)"><g transform="translate(886 -1748)"><g transform="translate(-870.257 1756)"><path d="M29.589,43.723C28.163,43.728,27,42.22,27,40.355V22.988a3.625,3.625,0,0,1,1.333-2.949,2.061,2.061,0,0,1,2.617.117l10.393,8.693a3.961,3.961,0,0,1,0,5.646L30.973,43.188a2.185,2.185,0,0,1-1.384.535Zm0-22.389a1.477,1.477,0,0,0-1.228,1.616V40.355A1.7,1.7,0,0,0,29,41.766a.98.98,0,0,0,1.25-.058l10.371-8.683a1.9,1.9,0,0,0,0-2.706L30.251,21.635a1.022,1.022,0,0,0-.662-.263Z" transform="translate(-27 -19.626)" fill="#fff" stroke="#fff" stroke-width="1"/></g><rect width="2.674" height="24.333" rx="1.337" transform="translate(-878 1756)" fill="#fff"/></g></g></svg>