<svg xmlns="http://www.w3.org/2000/svg" xmlns:xlink="http://www.w3.org/1999/xlink" width="40" height="40" viewBox="0 0 40 40"><defs><clipPath id="b"><rect width="40" height="40"/></clipPath></defs><g id="a" clip-path="url(#b)"><g transform="translate(-7.375 -7.375)"><path d="M42.942,7.375H17.591a4.4,4.4,0,0,0-4.395,4.4V13.24H11.852a4.483,4.483,0,0,0-4.477,4.487V42.894a4.482,4.482,0,0,0,4.477,4.481H37.015a4.481,4.481,0,0,0,4.5-4.481V41.548H42.98a4.4,4.4,0,0,0,4.395-4.4V11.774a4.394,4.394,0,0,0-4.433-4.4Zm2.441,4.4v2.053H32.439a1.957,1.957,0,0,1-1.719-1.047L28.909,9.329l14.034,0a2.439,2.439,0,0,1,2.441,2.443Zm-5.819,31.12a2.531,2.531,0,0,1-2.531,2.526H11.852a2.529,2.529,0,0,1-2.523-2.526V17.706a2.533,2.533,0,0,1,2.523-2.551H13.2V37.149a4.4,4.4,0,0,0,4.395,4.4H39.563Zm3.419-3.319H17.591a2.443,2.443,0,0,1-2.443-2.443V11.774a2.443,2.443,0,0,1,2.443-2.443H26.7l2.285,4.359a3.907,3.907,0,0,0,3.452,2.093H45.383V37.149a2.442,2.442,0,0,1-2.441,2.445ZM20.4,12.971a1.4,1.4,0,1,1-.408-.992,1.406,1.406,0,0,1,.408.992Zm4.673,0a1.4,1.4,0,1,1-.408-.992,1.406,1.406,0,0,1,.408.992Z" transform="translate(0 0)" fill="#004e98"/><path d="M25.82,22a6.7,6.7,0,0,0-.614,8.734l-3.037,3.043a.945.945,0,1,0,1.338,1.334l3.037-3.037A6.685,6.685,0,1,0,25.82,22Zm8.118,8.115a4.793,4.793,0,1,1,1.419-3.392,4.793,4.793,0,0,1-1.419,3.392Z" transform="translate(0.772 0.659)" fill="#f29200"/></g></g></svg>