<svg xmlns="http://www.w3.org/2000/svg" xmlns:xlink="http://www.w3.org/1999/xlink" width="40" height="40" viewBox="0 0 40 40"><defs><clipPath id="b"><rect width="40" height="40"/></clipPath></defs><g id="a" clip-path="url(#b)"><g transform="translate(-0.144)"><path d="M44.315,33.68,42.5,32.108c.023-.282.034-.582.034-.9s-.012-.622-.034-.905l1.812-1.571a1.78,1.78,0,0,0,.567-2.046,13.185,13.185,0,0,0-2.6-4.5A1.83,1.83,0,0,0,41,21.535V5H5V38.333H20.056a13.362,13.362,0,0,0,1.372,1.889,1.812,1.812,0,0,0,2.04.539l2.291-.793a10.309,10.309,0,0,0,1.548.9l.467,2.4a1.8,1.8,0,0,0,1.475,1.483A14.26,14.26,0,0,0,31.856,45a14.028,14.028,0,0,0,2.557-.244,1.821,1.821,0,0,0,1.525-1.492l.468-2.4a10.673,10.673,0,0,0,1.54-.9l2.3.8a1.815,1.815,0,0,0,2.018-.514,13.237,13.237,0,0,0,2.619-4.522A1.781,1.781,0,0,0,44.315,33.68ZM7.667,7.667H38.333V11H7.667Zm6,28h-6v-22h6Zm5.165-8.984a1.779,1.779,0,0,0,.567,2.046L21.211,30.3c-.024.283-.035.583-.035.905s.012.622.035.9L19.4,33.68a1.774,1.774,0,0,0-.584,1.987H16.333v-22h22v8.641l-.387.134a10.511,10.511,0,0,0-1.54-.9l-.468-2.4a1.82,1.82,0,0,0-1.478-1.484,13.265,13.265,0,0,0-5.21,0,1.821,1.821,0,0,0-1.477,1.484l-.467,2.4a10.356,10.356,0,0,0-1.548.9l-2.291-.794a1.818,1.818,0,0,0-2.019.514A13.239,13.239,0,0,0,18.832,26.682Zm20.946,3.325a7.789,7.789,0,0,1,0,2.393l-.141.752,2.544,2.206a10.631,10.631,0,0,1-1.569,2.708l-3.16-1.094-.575.464a7.951,7.951,0,0,1-2.124,1.236l-.687.265-.638,3.278a10.341,10.341,0,0,1-3.14,0l-.638-3.277-.688-.265a7.55,7.55,0,0,1-2.1-1.22l-.579-.487-3.177,1.1a10.587,10.587,0,0,1-1.569-2.708l2.544-2.206-.14-.752a7.752,7.752,0,0,1,0-2.393l.14-.752-2.544-2.207a10.608,10.608,0,0,1,1.57-2.708l3.176,1.1.58-.488a7.545,7.545,0,0,1,2.1-1.22l.686-.266.639-3.284a10.6,10.6,0,0,1,3.137,0l.639,3.284.686.266a7.984,7.984,0,0,1,2.125,1.236l.575.465,3.161-1.094a10.591,10.591,0,0,1,1.568,2.708l-2.544,2.207Z" transform="translate(-5 -5)" fill="#004e98"/><path d="M57.918,50.442a6.007,6.007,0,1,0,6.007,6.008A6.015,6.015,0,0,0,57.918,50.442Zm0,9.348a3.305,3.305,0,0,1-3.341-3.34,3.341,3.341,0,1,1,3.341,3.34Z" transform="translate(-31.061 -30.246)" fill="#f29200"/><rect width="3.333" height="2.667" transform="translate(4 10.667)" fill="#004e98"/><rect width="3.333" height="2.667" transform="translate(4 14.667)" fill="#004e98"/><rect width="3.333" height="2.667" transform="translate(4 18.667)" fill="#004e98"/></g></g></svg>