<svg xmlns="http://www.w3.org/2000/svg" xmlns:xlink="http://www.w3.org/1999/xlink" width="40" height="40" viewBox="0 0 40 40"><defs><clipPath id="b"><rect width="40" height="40"/></clipPath></defs><g id="a" clip-path="url(#b)"><g transform="translate(-43.436 -298.348)"><path d="M25.828,38.29C22.25,33.824,14.369,24.242,14.369,17.3A12.165,12.165,0,0,1,26.4,5,12.165,12.165,0,0,1,38.428,17.3c0,6.965-7.887,16.521-11.466,21a.718.718,0,0,1-1.133-.009ZM37.307,34.95c4.713.947,10.7,3.412,2.248,5.881-6.264,1.829-20.145,1.829-26.409,0-8.459-2.47-2.467-4.937,2.248-5.881a.743.743,0,0,0-.278-1.459c-2.688.538-8.186,2.041-8.186,4.808,0,1.694,2.528,3,5.819,3.961,6.528,1.907,20.677,1.907,27.206,0,2.781-.812,4.784-1.842,5.392-3.5,0,.048-2.968.559,0-.46,0-2.767-5.072-4.27-7.76-4.808a.743.743,0,0,0-.279,1.459ZM26.262,36.485l.136.17C29.7,32.538,36.972,23.518,36.972,17.3c0-9.6-11.406-14.433-18.05-7.642a10.893,10.893,0,0,0-3.1,7.642C15.824,23.461,22.99,32.4,26.262,36.485Z" transform="translate(37.256 294.014)" fill="#004e98" stroke="#004e98" stroke-width="1.2" fill-rule="evenodd"/><path d="M18.424,6.983a5.735,5.735,0,0,0-5.784,5.684,5.8,5.8,0,0,0,9.873,4.019,5.679,5.679,0,0,0-4.089-9.7Zm3.108,2.63a4.41,4.41,0,0,0-7.5,3.055,4.41,4.41,0,0,0,7.5,3.055,4.268,4.268,0,0,0,0-6.109Z" transform="translate(45.228 298.618)" fill="#f29200" stroke="#f29200" stroke-width="1.2" fill-rule="evenodd"/></g></g></svg>