<svg xmlns="http://www.w3.org/2000/svg" xmlns:xlink="http://www.w3.org/1999/xlink" width="40" height="40" viewBox="0 0 40 40"><defs><clipPath id="b"><rect width="40" height="40"/></clipPath></defs><g id="a" clip-path="url(#b)"><g transform="translate(-2755 -928)"><path d="M31.777,18.806v0a5.023,5.023,0,1,1-5.022-5.015,5.023,5.023,0,0,1,5.022,5.015Z" transform="translate(2747.754 924.159)" fill="#f29200"/><path d="M31.123,7.738A15.519,15.519,0,0,0,17.683,31.01l7.754,13.445a6.546,6.546,0,0,0,11.349,0L44.551,31.01h0A15.518,15.518,0,0,0,31.122,7.738Zm9.466,20.98L32.827,42.174a1.963,1.963,0,0,1-3.41,0L21.654,28.718a10.934,10.934,0,1,1,18.935,0Z" transform="translate(2743.391 920.262)" fill="#3b3b3b"/></g></g></svg>