<svg xmlns="http://www.w3.org/2000/svg" xmlns:xlink="http://www.w3.org/1999/xlink" width="40" height="40" viewBox="0 0 40 40"><defs><clipPath id="b"><rect width="40" height="40"/></clipPath></defs><g id="a" clip-path="url(#b)"><g transform="translate(-11 -10.98)"><g transform="translate(11 10.98)"><path d="M12.882,977.374a.956.956,0,0,0-.976.943.984.984,0,0,0,1.072.859H49.855a.909.909,0,1,0,0-1.8H12.978q-.048,0-.1,0Z" transform="translate(-11.497 -970.134)" fill="#f29200" stroke="#f29200" stroke-width="0.5"/><path d="M42.1,963.343a1.026,1.026,0,0,0-.654,1.778l7.341,6.872v29.3H16.107a1.025,1.025,0,0,0,0,2.051h33.7a1.023,1.023,0,0,0,1.021-1.025V971.561a1.027,1.027,0,0,0-.319-.753l-7.66-7.177a1.02,1.02,0,0,0-.75-.288Zm-22.518.016a1.018,1.018,0,0,0-.606.272l-7.66,7.177a1.027,1.027,0,0,0-.319.753v30.756a1.021,1.021,0,1,0,2.043,0V971.993l7.038-6.584H38.066a1.025,1.025,0,0,0,0-2.05H19.682Q19.634,963.357,19.586,963.359Z" transform="translate(-11 -963.342)" fill="#f29200" stroke="#f29200" stroke-width="0.5"/><path d="M48.8,964.337a.9.9,0,0,0-.8.915v5.407a.9.9,0,1,0,1.8,0v-5.407a.9.9,0,0,0-1-.915Z" transform="translate(-28.984 -963.886)" fill="#f29200" stroke="#f29200" stroke-width="0.5"/><g transform="translate(13.605 15.199)"><path d="M48.8,991.337a.9.9,0,0,0-.8.915v14.871a.9.9,0,1,0,1.8,0V992.252a.9.9,0,0,0-1-.915Z" transform="translate(-42.589 -990.659)" fill="#f29200" stroke="#f29200" stroke-width="0.5"/><path d="M42.178,990.364a.9.9,0,0,0-.563.31l-5.407,6.309a.9.9,0,0,0,1.38,1.169l4.717-5.506,4.717,5.506a.9.9,0,1,0,1.38-1.169L43,990.674a.9.9,0,0,0-.817-.31Z" transform="translate(-35.993 -990.355)" fill="#f29200" stroke="#f29200" stroke-width="0.5"/></g></g></g></g></svg>