<svg xmlns="http://www.w3.org/2000/svg" width="23" height="23" viewBox="0 0 23 23"><g transform="translate(-246.707 -124.706)"><g transform="translate(246.707 124.706)" fill="#fff" stroke="#707070" stroke-width="1"><circle cx="11.5" cy="11.5" r="11.5" stroke="none"/><circle cx="11.5" cy="11.5" r="11" fill="none"/></g><g transform="translate(252.899 130.068)"><g transform="translate(0 0)"><path d="M18.647,14.5H8.332a.261.261,0,1,1,0-.522H18.647a.261.261,0,0,1,0,.522Z" transform="translate(-8.071 -12.497)" fill="#131313" stroke="#131313" stroke-width="0.3"/><path d="M35.983,4.506a.261.261,0,0,1-.261-.261V3.684a.662.662,0,0,0-.661-.661H32.632a.662.662,0,0,0-.661.661v.561a.261.261,0,1,1-.522,0V3.684A1.184,1.184,0,0,1,32.632,2.5h2.428a1.185,1.185,0,0,1,1.183,1.183v.561a.261.261,0,0,1-.261.262Z" transform="translate(-28.428 -2.5)" fill="#131313" stroke="#131313" stroke-width="0.3"/><path d="M22.568,24.771H16.921A1.67,1.67,0,0,1,15.254,23.1V14.238a.261.261,0,0,1,.261-.261h8.458a.261.261,0,0,1,.261.261V23.1a1.67,1.67,0,0,1-1.667,1.667ZM15.777,14.5v8.6a1.146,1.146,0,0,0,1.145,1.145h5.646A1.146,1.146,0,0,0,23.713,23.1V14.5Z" transform="translate(-14.326 -12.493)" fill="#131313" stroke="#131313" stroke-width="0.3"/><path d="M30.8,39.463a.261.261,0,0,1-.261-.261V34.05a.261.261,0,1,1,.522,0V39.2a.261.261,0,0,1-.261.262Z" transform="translate(-27.636 -29.745)" fill="#131313" stroke="#131313" stroke-width="0.3"/><path d="M48.241,39.463a.261.261,0,0,1-.261-.261V34.05a.261.261,0,0,1,.522,0V39.2a.261.261,0,0,1-.261.262Z" transform="translate(-42.823 -29.745)" fill="#131313" stroke="#131313" stroke-width="0.3"/><path d="M65.679,39.463a.261.261,0,0,1-.261-.261V34.05a.261.261,0,1,1,.522,0V39.2a.26.26,0,0,1-.26.262Z" transform="translate(-58.006 -29.745)" fill="#131313" stroke="#131313" stroke-width="0.3"/></g></g></g></svg>