<svg xmlns="http://www.w3.org/2000/svg" xmlns:xlink="http://www.w3.org/1999/xlink" width="40" height="40" viewBox="0 0 40 40"><defs><clipPath id="b"><rect width="40" height="40"/></clipPath></defs><g id="a" clip-path="url(#b)"><g transform="translate(-11 -10.98)"><g transform="translate(11 10.98)"><path d="M12.877,977.374a.954.954,0,0,0-.972.943.981.981,0,0,0,1.068.859h36.72a.908.908,0,1,0,0-1.8H12.973q-.048,0-.1,0Z" transform="translate(-11.497 -970.134)" fill="#004e98" stroke="#004e98" stroke-width="0.5"/><path d="M41.974,963.343a1.018,1.018,0,0,0-.916.669,1.031,1.031,0,0,0,.265,1.109l7.31,6.872v29.3H16.085a1.025,1.025,0,0,0,0,2.051H49.65a1.021,1.021,0,0,0,1.017-1.025V971.561a1.029,1.029,0,0,0-.318-.753l-7.628-7.176a1.013,1.013,0,0,0-.747-.289Zm-22.424.016a1.012,1.012,0,0,0-.6.272l-7.628,7.176a1.029,1.029,0,0,0-.318.753v30.756a1.017,1.017,0,1,0,2.034,0V971.993l7.008-6.584h17.91a1.025,1.025,0,0,0,0-2.05H19.645A.92.92,0,0,0,19.55,963.359Z" transform="translate(-11 -963.342)" fill="#004e98" stroke="#004e98" stroke-width="0.5"/><path d="M48.8,964.337a.9.9,0,0,0-.8.915v5.407a.9.9,0,1,0,1.8,0v-5.407a.9.9,0,0,0-1-.915Z" transform="translate(-29.068 -963.886)" fill="#004e98" stroke="#004e98" stroke-width="0.5"/><g transform="translate(13.522 15.199)"><path d="M48.8,991.337a.9.9,0,0,0-.8.915v14.871a.9.9,0,1,0,1.8,0V992.252a.9.9,0,0,0-1-.915Z" transform="translate(-42.589 -990.659)" fill="#f29200" stroke="#f29200" stroke-width="0.5"/><path d="M42.178,990.364a.9.9,0,0,0-.563.31l-5.407,6.309a.9.9,0,0,0,1.38,1.169l4.717-5.506,4.717,5.506a.9.9,0,1,0,1.38-1.169L43,990.674a.9.9,0,0,0-.817-.31Z" transform="translate(-35.993 -990.355)" fill="#f29200" stroke="#f29200" stroke-width="0.5"/></g></g></g></g></svg>