<svg xmlns="http://www.w3.org/2000/svg" xmlns:xlink="http://www.w3.org/1999/xlink" width="40" height="40" viewBox="0 0 40 40"><defs><clipPath id="b"><rect width="40" height="40"/></clipPath></defs><g id="a" clip-path="url(#b)"><g transform="translate(0)"><path d="M46.782,9.007a1.3,1.3,0,0,1,.468,1.039,1.466,1.466,0,0,1-.468,1.039l-7.724,6.855a1.725,1.725,0,0,1-2.294,0,1.3,1.3,0,0,1,0-2.036l6.6-5.858L39.573,6.68v3.365A1.574,1.574,0,0,1,37.935,11.5H18.555c-4.4,0-8,3.2-8,7.1a1.574,1.574,0,0,1-1.638,1.454A1.574,1.574,0,0,1,7.273,18.6c0-5.526,5.056-10.012,11.281-10.012H36.249v-5.4a1.459,1.459,0,0,1,1.03-1.329,1.829,1.829,0,0,1,1.779.332Zm-1.17,14.541A1.574,1.574,0,0,0,43.973,25c0,3.905-3.6,7.1-8,7.1H16.636A1.574,1.574,0,0,0,15,33.56v3.365L11.206,33.56l6.6-5.858a1.3,1.3,0,0,0,0-2.036,1.725,1.725,0,0,0-2.294,0L7.742,32.522a1.3,1.3,0,0,0,0,2.036l7.724,6.855a1.741,1.741,0,0,0,1.17.415,1.432,1.432,0,0,0,.609-.125,1.459,1.459,0,0,0,1.03-1.329v-5.4H35.969c6.226,0,11.281-4.487,11.281-10.012A1.54,1.54,0,0,0,45.612,23.548ZM29.134,21.8a1.886,1.886,0,0,0-3.745,0,1.886,1.886,0,0,0,3.745,0Zm5.8,0a1.886,1.886,0,0,0-3.745,0,1.886,1.886,0,0,0,3.745,0Zm-11.609,0a1.886,1.886,0,0,0-3.745,0,1.886,1.886,0,0,0,3.745,0Z" transform="translate(-7.25 -1.762)" fill="#004e98"/><path d="M28.178,21.527a1.812,1.812,0,1,0-1.806,1.662A1.744,1.744,0,0,0,28.178,21.527Zm5.6,0a1.812,1.812,0,1,0-1.806,1.662A1.744,1.744,0,0,0,33.777,21.527Zm-11.2,0a1.812,1.812,0,1,0-1.806,1.662A1.744,1.744,0,0,0,22.58,21.527Z" transform="translate(-6.36 -1.486)" fill="#f29200"/></g></g></svg>