<svg xmlns="http://www.w3.org/2000/svg" xmlns:xlink="http://www.w3.org/1999/xlink" width="40" height="40" viewBox="0 0 40 40"><defs><clipPath id="b"><rect width="40" height="40"/></clipPath></defs><g id="a" clip-path="url(#b)"><g transform="translate(0.255 -3.95)"><path d="M35.075,33.019V32.5a.446.446,0,1,1,.892,0v.523A.446.446,0,1,1,35.075,33.019Zm2.231.475a.463.463,0,0,0,.446-.475V32.5a.447.447,0,1,0-.892,0v.523A.462.462,0,0,0,37.305,33.495Zm-2.231-3.659a.446.446,0,1,0-.892,0v.523a.446.446,0,1,0,.892,0Zm1.338,1a.463.463,0,0,0,.446-.475v-.523a.447.447,0,1,0-.892,0v.523A.463.463,0,0,0,36.413,30.834Zm1.785,0a.463.463,0,0,0,.446-.475v-.523a.447.447,0,1,0-.892,0v.523A.463.463,0,0,0,38.2,30.834ZM26.821,27.6a2.015,2.015,0,0,1-.892-.19,2.223,2.223,0,0,1-2.365.57l-5.532-2.091c-.178.333-.758,1.425-.982,1.758a12.413,12.413,0,0,1,1.294,1.758,3.468,3.468,0,0,1,.357,1.283l.491,9.123a2.887,2.887,0,1,1-5.755.333l-.4-7.65a3.475,3.475,0,0,1-.58,1.853L7.324,41.667A2.838,2.838,0,0,1,5,42.9c-2.32.048-3.748-2.946-2.32-4.894L7.234,31.5V24.7a5.978,5.978,0,0,1,.714-3.279l3.614-6.652c2.989-5.274,10.529-2.756,10.083,3.421L22.4,20.9l5.22,2a2.393,2.393,0,0,1,1.517,2.233l6.38.808a.446.446,0,0,1,.312.19L36.9,27.555h1.74a.477.477,0,0,1,0,.95H34.227a.477.477,0,0,1,0-.95h1.562l-.491-.713-6.246-.808A2.413,2.413,0,0,1,26.821,27.6Zm-10.351.76a5.528,5.528,0,0,1-3.435,1.663v.523c.178.285.937,1.045.892,1.283l.446,8.268a2.1,2.1,0,0,0,2.1,2,2.078,2.078,0,0,0,1.874-2.233l-.491-9.123C17.764,29.836,16.916,29.028,16.47,28.363Zm.669-2.8A2.5,2.5,0,0,1,15.8,23.944c-.045-.19-1.606-5.654-1.517-5.654a2.3,2.3,0,0,1,4.506-.9l.937,3.374c2.275-3.326.446-7.84-3.48-7.935A4.513,4.513,0,0,0,12.321,15.2L8.707,21.853a4.882,4.882,0,0,0-.58,2.756v7.032a.706.706,0,0,1-.089.285l-4.64,6.6a2.2,2.2,0,0,0,.4,2.946,1.951,1.951,0,0,0,2.766-.428L11.7,33.732a2.861,2.861,0,0,0,.4-1.235V29.551a.462.462,0,0,1,.446-.475A4.428,4.428,0,0,0,16.514,26.7Zm7.674-1.283-5.265-2a.538.538,0,0,1-.446-.38l-1.16-4.181a1.416,1.416,0,0,0-1.74-1,1.48,1.48,0,0,0-.937,1.853l1.428,5.132a1.606,1.606,0,0,0,.892,1l6.335,2.376C25.616,27.7,26.508,24.989,24.813,24.276Zm2.142,1a.45.45,0,0,1,.491-.428l.758.1a1.426,1.426,0,0,0-.892-1.188l-5.443-2.091a.494.494,0,0,1-.268-.333l-.4-1.378c-.134.38-.625,1.188-.8,1.568l4.729,1.853A2.486,2.486,0,0,1,26.464,26.6a1.344,1.344,0,0,0,1.562-.665l-.669-.1A.487.487,0,0,1,26.955,25.274ZM17.719,8.929A4.115,4.115,0,0,1,21.69,4.7c5.265.238,5.265,8.268,0,8.505A4.189,4.189,0,0,1,17.719,8.929Zm.937,0a3.19,3.19,0,0,0,3.078,3.279c4.06-.143,4.06-6.367,0-6.557A3.161,3.161,0,0,0,18.656,8.929ZM5.361,22.471l-3.3-2.043A3.513,3.513,0,0,1,.9,15.866L4.825,8.644A3.031,3.031,0,0,1,9.108,7.408l3.3,2.043a1.129,1.129,0,0,1,.357,1.521L6.788,22.091A1.067,1.067,0,0,1,5.361,22.471Zm-2.855-2.9,3.3,2.043h0c.089.048.134,0,.178-.048l6.023-11.119c.045-.048,0-.143-.045-.19l-3.3-2.043a2.139,2.139,0,0,0-3.034.855L1.7,16.294A2.521,2.521,0,0,0,2.505,19.572ZM5.9,20.713a.476.476,0,0,1-.357-.048l-1.2-.76a3.542,3.542,0,0,1-1.562-2.138,3.822,3.822,0,0,1,.312-2.708l1.026-1.9a.447.447,0,0,1,.58-.238A1.8,1.8,0,0,0,6.7,12.635a3.161,3.161,0,0,1,3.3-.38.475.475,0,0,1,.223.713l-4.06,7.507A.466.466,0,0,1,5.9,20.713Zm3.257-7.7a2.217,2.217,0,0,0-1.963.428,2.8,2.8,0,0,1-2.454.523l-.848,1.568a2.663,2.663,0,0,0,.892,3.516l.848.523Z" transform="translate(0)" fill="#004e98" stroke="#004e98" stroke-width="0.3"/></g></g></svg>