<svg xmlns="http://www.w3.org/2000/svg" width="376.084" height="283.469" viewBox="0 0 376.084 283.469"><path d="M402.865,730.49c-14.048.38-244.256,1.548-245.692,0-5.515-5.944-21.066-31.555-18.3-25.638a162.742,162.742,0,0,1,6.546,15c-.69,15.653-14.764,5.676-25.783-21.168-10.567-25.741-23.42,29.346-26.149,15.545,2.644-14.275.972-54.847,3.616-49.56s29.08,10.576,51.817,10.576,40.713-1.587,40.713-4.759-3.173-1.586-21.679-1.057S102.484,656.773,98.071,656.5s.827-5.793,1.1-11.036,4.968-19.867,6.623-17.935,13.244-4.415,16.83-5.8,26.488,1.38,22.35,3.863-17.383,0-15.452,1.933,21.8,9.381,16,9.381-16-5.518-15.176-3.311,15.727,11.864,10.486,11.312-13.8-6.9-13.522-5.243,11.037,12.969,4.416,11.039-11.037-10.486-14.624-8.831-17.935,6.9-22.626,3.588-12.969-5.518-12.416-9.381,3.863-20.971,10.486-18.763,15.727,6.9,8.554,5.241S79.031,604.9,73.513,602.141,53.095,606,49.785,603.8s30.627-2.208,28.419-3.863,19.59-17.935,27.041-29.8-3.311-37.527-10.209-38.353S61.1,564.616,53.648,577.033s-12.694,22.9-7.175,30.9,22.35,27.866,29.8,29.246,20.143,4.691,10.759-4.138-28.694-30.076-28.419-37.8,20.97-11.037,18.763-16-5.518-.55-2.76-9.381,24.005-40.008,27.868-40.56,14.993-4.322,18.856-6.253,4.968-9.656,6.623-6.9,1.655,9.656,8.554,13.8,15.91,13.15,17.566,18.117,4.414,21.8,3.035,16.832-1.655-26.947-.277-30.81,4.691-13.795,5.518-13.795,2.208,7.174,5.8,10.484,9.106,11.864,4.138,9.934a50.911,50.911,0,0,0-13.52-3.035c-1.933,0-16.279,15.633-17.384,13.7s-10.943-11.5-13.426-20.051,0-13.795,1.655-19.588.275-12.418.552-9.106,17.289,16.28,27.5,12.692,17.107-30.076,15.177-36.7-14.9-7.726-22.075-7.726-18.116,3.31-18.116,5.518-2.208,6.346-2.76,7.449.827,6.071-.828,3.035-5.793-11.312-4.138-3.586,6.621,15.175,5.793,8.553-2.483-12.416-1.518-14.624,10.117-9.519,26.947-11.314S187.47,472,182.5,474.759s-8.554,2.07-9.519-.553.414-16.142-8.969-21.66-28.6-1.655-34.258,3.036-7.726,16.969-6.9,21.247,5.106,1.241,3.726,1.793-3.173,5.931-.69,13.106,6.346,18.763,14.487,27.454,20.462,10.484,21.979,11.036,30.168,12.048,31.64,17.566,3.679,34.581.369,31.639-2.576-36.422,5.518-25.017,27.591,44.515,23.545,58.126-15.085,38.263-20.97,34.95-3.679-11.036-12.141-15.451-14.716-7.724-13.981-2.941,6.254,6.99,6.99,5.149,4.416-27.96,2.208-31.637-5.518-4.048-5.15-8.462,4.414-11.774,5.518-10.669-1.472,8.462,1.839,9.565,1.838,1.1,3.311,1.1,2.943-8.461,4.048-6.99,1.838,11.036,1.838,11.036-4.046,1.1-4.415,3.68-5.518,36.053-3.311,34.951,11.405-26.122,11.773-28.329-.367-7.726.368-10.668,10.668-6.254,10.668-6.254-3.679,4.414-3.679,6.988,2.576,5.52,3.679,4.415,4.415-4.415,4.415-4.415-.369,8.462-3.311,10.3-5.518-1.841-7.359,2.942-11.4,28.7-14.716,29.432-13.611-7.357-16.924-4.782-11.773,11.405-6.254,10.3,8.462-5.885,8.095-3.677-7.359,7.357-3.311,9.2,6.99-4.784,6.99-3.312-2.944,11.036,2.206,9.934,11.774-11.773,15.452-9.565-11.4,5.885-11.4,12.875-27.96,6.254-28.7,1.1,2.208-57.761,1.839-71.005-2.575-20.234.736-20.234,36.053.736,28.329,0-69.166-1.839-71.372-5.15,3.311-7.359,3.678-4.784-8.829,23.178-13.611,21.706-9.565-9.2-5.518-2.942,5.149,40.1,6.99,41.94,4.046.367,5.15-1.841,8.831,15.085,11.038,6.99-1.105-13.244-1.105-16.555,3.68-.736,3.311-4.046-5.518-32.008-2.942-29.432,5.518,29.063,5.518,29.063,3.311-.367,3.311,1.472,2.208,16.924-.736,16.187,11.405-21.337,10.3-25.752-4.782-7.726-2.941-10.67,13.244-8.093,11.772-6.99-4.415,6.254-4.415,8.095,3.311,2.575,3.311,2.575,4.783-5.887,4.783-4.416-1.47,10.669-3.311,11.406l-1.839.736s-18.4,36.053-23.547,38.26-27.958,17.66-23.176,23.178,57.759,16.555,59.231,18.763-6.254,28.7-8.829,23.178,8.093-23.914,16.921-25.017,19.5-4.048,22.075.367c2.215,3.8,7.244,23.265,5.555,34.571-2.069,13.853-2.375,17.594-14.218,8.049-7.767-6.26-3.9,13.568-18.4-9.715-18.036-28.962.807-2.549,2.671-4.61,7.693-8.51,8.8-10.7,4.522-8.06-4.782,2.943-12.508,12.508-18.026,6.99s-26.488-19.5-25.017-11.773,14.4,21.653,7.038,24.227-19.547-1.785-9.982,5.571-79.968,3.927-97.441,4.957" transform="translate(-27.808 -448.795)" fill="none" stroke="rgba(0,78,152,0.24)" stroke-linecap="round" stroke-linejoin="round" stroke-width="2" fill-rule="evenodd"/></svg>