<svg xmlns="http://www.w3.org/2000/svg" xmlns:xlink="http://www.w3.org/1999/xlink" width="40" height="40" viewBox="0 0 40 40"><defs><clipPath id="b"><rect width="40" height="40"/></clipPath></defs><g id="a" clip-path="url(#b)"><g transform="translate(1 1)"><path d="M21.321,2A19.321,19.321,0,1,0,40.641,21.321,19.342,19.342,0,0,0,21.321,2Zm0,35.881A16.561,16.561,0,1,1,37.881,21.321,16.574,16.574,0,0,1,21.321,37.881Z" transform="translate(-2 -2)" fill="#004e98"/><path d="M18.574,19.651a2.737,2.737,0,0,1-.814-1.946V8.376a1.38,1.38,0,0,0-2.76,0v9.329a5.526,5.526,0,0,0,1.615,3.906l4.306,4.306c1.214,1.214,3.34-.566,1.946-1.946l-4.306-4.306Z" transform="translate(2.941 -0.096)" fill="#004e98"/></g></g></svg>