<svg xmlns="http://www.w3.org/2000/svg" xmlns:xlink="http://www.w3.org/1999/xlink" width="40" height="40" viewBox="0 0 40 40"><defs><clipPath id="b"><rect width="40" height="40"/></clipPath></defs><g id="a" clip-path="url(#b)"><g transform="translate(-19 -19)"><path d="M53.839,26.1a7.1,7.1,0,0,0-7.1-7.1H26.1A7.1,7.1,0,0,0,19,26.1V46.742a7.1,7.1,0,0,0,7.1,7.1h3.226a1.935,1.935,0,0,0,0-3.871H26.1a3.226,3.226,0,0,1-3.226-3.226V26.1A3.226,3.226,0,0,1,26.1,22.871h8.387v5.806a1.935,1.935,0,0,0,3.871,0V22.871h8.387A3.226,3.226,0,0,1,49.968,26.1v6.452a1.935,1.935,0,0,0,3.871,0Z" fill="#3b3b3b"/><path d="M54.742,69.322a1.935,1.935,0,0,0-1.935-2.129h-.645a1.29,1.29,0,0,1-1.29-1.29V58.161a1.29,1.29,0,0,1,1.29-1.29h.645a1.935,1.935,0,0,0,1.935-2.129A2.013,2.013,0,0,0,52.7,53,5.7,5.7,0,0,0,47,58.7v6.671a5.7,5.7,0,0,0,5.7,5.7,2.013,2.013,0,0,0,2.045-1.742Z" transform="translate(-9.935 -12.064)" fill="#f29200"/><path d="M76.737,58.7a5.7,5.7,0,0,0-5.7-5.7,2.013,2.013,0,0,0-2.045,1.742,1.935,1.935,0,0,0,1.936,2.129h.645a1.29,1.29,0,0,1,1.29,1.29V65.9a1.29,1.29,0,0,1-1.29,1.29H70.93a1.935,1.935,0,0,0-1.936,2.129,2.013,2.013,0,0,0,2.045,1.742,5.7,5.7,0,0,0,5.7-5.7Z" transform="translate(-17.737 -12.064)" fill="#f29200"/></g></g></svg>