<svg xmlns="http://www.w3.org/2000/svg" xmlns:xlink="http://www.w3.org/1999/xlink" width="40" height="40" viewBox="0 0 40 40"><defs><clipPath id="b"><rect width="40" height="40"/></clipPath></defs><g id="a" clip-path="url(#b)"><g transform="translate(-12.492 -10.75)"><path d="M25.267,25.508V21.292a1.409,1.409,0,0,0-2.819,0V25.5a4.988,4.988,0,0,0,0,9.592V54.706a1.409,1.409,0,0,0,2.819,0V35.094a4.988,4.988,0,0,0,0-9.585Zm-1.4,6.991c-.005,0-.009,0-.014,0s-.013,0-.02,0a2.274,2.274,0,1,1,.034,0Z" transform="translate(-6.34 -7.133)" fill="#3b3b3b"/><path d="M33.632,31V21.292a1.409,1.409,0,0,0-2.819,0V31a4.988,4.988,0,0,0,0,9.592V54.706a1.409,1.409,0,0,0,2.819,0V40.59a4.988,4.988,0,0,0,0-9.585ZM32.237,38c-.005,0-.009,0-.014,0s-.013,0-.02,0a2.258,2.258,0,1,1,.034,0Z" transform="translate(0.274 -7.133)" fill="#f29200"/><path d="M42,35.9V21.292a1.409,1.409,0,0,0-2.819,0V35.9a4.988,4.988,0,0,0,0,9.591v9.216a1.409,1.409,0,0,0,2.819,0V45.487A4.988,4.988,0,0,0,42,35.9ZM40.6,42.892c-.005,0-.01,0-.015,0s-.012,0-.019,0a2.243,2.243,0,1,1,.034,0Z" transform="translate(6.889 -7.133)" fill="#3b3b3b"/></g></g></svg>